<?xml version="1.0" encoding="UTF-8" standalone="no"?>
<!-- Created with Inkscape (http://www.inkscape.org/) -->

<svg
   xmlns:dc="http://purl.org/dc/elements/1.1/"
   xmlns:cc="http://creativecommons.org/ns#"
   xmlns:rdf="http://www.w3.org/1999/02/22-rdf-syntax-ns#"
   xmlns:svg="http://www.w3.org/2000/svg"
   xmlns="http://www.w3.org/2000/svg"
   xmlns:xlink="http://www.w3.org/1999/xlink"
   xmlns:sodipodi="http://sodipodi.sourceforge.net/DTD/sodipodi-0.dtd"
   xmlns:inkscape="http://www.inkscape.org/namespaces/inkscape"
   width="1351.7686mm"
   height="748.45245mm"
   viewBox="0 0 1351.7686 748.45245"
   id="svg7377"
   version="1.1"
   inkscape:version="0.91+devel+osxmenu r12922"
   sodipodi:docname="overview.svg">
  <defs
     id="defs7379" />
  <sodipodi:namedview
     id="base"
     pagecolor="#ffffff"
     bordercolor="#666666"
     borderopacity="1.0"
     inkscape:pageopacity="0.0"
     inkscape:pageshadow="2"
     inkscape:zoom="0.0875"
     inkscape:cx="3169.8236"
     inkscape:cy="1903.4042"
     inkscape:document-units="mm"
     inkscape:current-layer="layer1"
     showgrid="false"
     inkscape:window-width="1440"
     inkscape:window-height="818"
     inkscape:window-x="0"
     inkscape:window-y="23"
     inkscape:window-maximized="0"
     fit-margin-top="0"
     fit-margin-left="0"
     fit-margin-right="0"
     fit-margin-bottom="0" />
  <metadata
     id="metadata7382">
    <rdf:RDF>
      <cc:Work
         rdf:about="">
        <dc:format>image/svg+xml</dc:format>
        <dc:type
           rdf:resource="http://purl.org/dc/dcmitype/StillImage" />
        <dc:title></dc:title>
      </cc:Work>
    </rdf:RDF>
  </metadata>
  <g
     inkscape:label="Layer 1"
     inkscape:groupmode="layer"
     id="layer1"
     transform="translate(228.54886,-9.7002965)">
    <g
       id="Layer_1"
       transform="matrix(0.26458333,0,0,0.26458333,-23.574377,9.7002965)"
       inkscape:tile-cx="42.333331"
       inkscape:tile-cy="63.410714"
       inkscape:tile-w="131.81542"
       inkscape:tile-h="107.42084"
       inkscape:tile-x0="-23.574377"
       inkscape:tile-y0="9.7002965">
      <path
         inkscape:connector-curvature="0"
         d="M 498.2,31.9 C 498.2,14.3 484,0 466.4,0 L 32.1,0 C 14.5,0 0.2,14.3 0.2,31.9 l 0,342.2 c 0,17.6 14.3,31.9 31.9,31.9 l 434.2,0 c 17.6,0 31.9,-14.3 31.9,-31.9 l 0,-342.2 z M 14.6,206.7 c -2.7,0 -4.8,-2.2 -4.8,-4.8 0,-2.7 2.2,-4.8 4.8,-4.8 2.7,0 4.8,2.2 4.8,4.8 0,2.7 -2.1,4.8 -4.8,4.8 z m 471.8,0 c -2.7,0 -4.8,-2.2 -4.8,-4.8 0,-2.7 2.2,-4.8 4.8,-4.8 2.7,0 4.8,2.2 4.8,4.8 0.1,2.7 -2.1,4.8 -4.8,4.8 z"
         id="path6876" />
      <g
         id="g6878">
        <g
           id="g6880">
          <path
             style="fill:#d4af37"
             inkscape:connector-curvature="0"
             d="m 0,357.7 0,19.2 c 0,10.8 6.2,20.2 14.4,25.2 l 0,-44.4 -14.4,0 z"
             id="path6882" />
          <path
             style="fill:#d4af37"
             inkscape:connector-curvature="0"
             d="m 483.6,402 c 8.2,-5 14.4,-14.4 14.4,-25.1 l 0,-19.2 -14.4,0 0,44.3 z"
             id="path6884" />
        </g>
        <rect
           style="fill:#d4af37"
           x="66.699997"
           y="356.70001"
           width="9.1999998"
           height="49.299999"
           id="rect6886" />
        <rect
           style="fill:#d4af37"
           x="79.099998"
           y="356.70001"
           width="9.1999998"
           height="49.299999"
           id="rect6888" />
        <rect
           style="fill:#d4af37"
           x="91.400002"
           y="356.70001"
           width="9.1999998"
           height="49.299999"
           id="rect6890" />
        <rect
           style="fill:#d4af37"
           x="103.7"
           y="356.70001"
           width="9.1999998"
           height="49.299999"
           id="rect6892" />
        <rect
           style="fill:#d4af37"
           x="164.3"
           y="356.70001"
           width="10.3"
           height="49.299999"
           id="rect6894" />
        <rect
           style="fill:#d4af37"
           x="176.60001"
           y="356.70001"
           width="10.3"
           height="49.299999"
           id="rect6896" />
        <rect
           style="fill:#d4af37"
           x="188.89999"
           y="356.70001"
           width="10.3"
           height="49.299999"
           id="rect6898" />
        <rect
           style="fill:#d4af37"
           x="201.3"
           y="356.70001"
           width="10.3"
           height="49.299999"
           id="rect6900" />
        <rect
           style="fill:#d4af37"
           x="213.60001"
           y="356.70001"
           width="10.3"
           height="49.299999"
           id="rect6902" />
        <rect
           style="fill:#d4af37"
           x="275.20001"
           y="356.70001"
           width="9.1999998"
           height="49.299999"
           id="rect6904" />
        <rect
           style="fill:#d4af37"
           x="287.5"
           y="356.70001"
           width="9.1999998"
           height="49.299999"
           id="rect6906" />
        <rect
           style="fill:#d4af37"
           x="299.79999"
           y="356.70001"
           width="9.1999998"
           height="49.299999"
           id="rect6908" />
        <rect
           style="fill:#d4af37"
           x="312.10001"
           y="356.70001"
           width="9.1999998"
           height="49.299999"
           id="rect6910" />
        <rect
           style="fill:#d4af37"
           x="324.5"
           y="356.70001"
           width="9.1999998"
           height="49.299999"
           id="rect6912" />
        <rect
           style="fill:#d4af37"
           x="385.10001"
           y="356.70001"
           width="10.3"
           height="49.299999"
           id="rect6914" />
        <rect
           style="fill:#d4af37"
           x="397.39999"
           y="356.70001"
           width="10.3"
           height="49.299999"
           id="rect6916" />
        <rect
           style="fill:#d4af37"
           x="409.70001"
           y="356.70001"
           width="10.3"
           height="49.299999"
           id="rect6918" />
        <rect
           style="fill:#d4af37"
           x="422"
           y="356.70001"
           width="10.3"
           height="49.299999"
           id="rect6920" />
        <path
           style="fill:#d4af37"
           inkscape:connector-curvature="0"
           d="m 139.1,317.3 c -12.8,0 -22.1,10.3 -23.1,23.1 l 0,65.6 46.2,0 0,-65.6 c 0,-12.7 -10.3,-23.1 -23.1,-23.1 z m 0.2,42.8 c -10.7,0 -19.3,-8.6 -19.3,-19.3 0,-10.7 8.6,-19.3 19.3,-19.3 10.7,0 19.3,8.7 19.3,19.3 0,10.7 -8.6,19.3 -19.3,19.3 z"
           id="path6922" />
        <path
           style="fill:#d4af37"
           inkscape:connector-curvature="0"
           d="m 249,317.3 c -12.8,0 -22.1,10.3 -23.1,23.1 l 0,65.6 46.2,0 0,-65.6 c 0,-12.7 -10.3,-23.1 -23.1,-23.1 z m 0.4,42.8 c -10.7,0 -19.3,-8.6 -19.3,-19.3 0,-10.7 8.6,-19.3 19.3,-19.3 10.7,0 19.3,8.7 19.3,19.3 0,10.7 -8.6,19.3 -19.3,19.3 z"
           id="path6924" />
        <path
           style="fill:#d4af37"
           inkscape:connector-curvature="0"
           d="m 359.9,317.3 c -12.8,0 -22.1,10.3 -23.1,23.1 l 0,65.6 46.2,0 0,-65.6 c 0,-12.7 -10.3,-23.1 -23.1,-23.1 z m 0.1,42.8 c -10.7,0 -19.3,-8.6 -19.3,-19.3 0,-10.7 8.6,-19.3 19.3,-19.3 10.7,0 19.3,8.7 19.3,19.3 0,10.7 -8.6,19.3 -19.3,19.3 z"
           id="path6926" />
        <path
           style="fill:#d4af37"
           inkscape:connector-curvature="0"
           d="m 458,317.6 c -13,0 -23.6,10.6 -23.6,23.6 0,0 0,0.1 0,0.1 l 0,0 0,64.7 34.6,0 c 4.3,0 8.4,-1 12.6,-2.7 l 0,-60.7 c 0,-0.4 0,-0.9 0,-1.3 0,-13.2 -10.6,-23.7 -23.6,-23.7 z m -0.2,43.3 c -10.7,0 -19.3,-8.6 -19.3,-19.3 0,-10.7 8.6,-19.3 19.3,-19.3 10.7,0 19.3,8.7 19.3,19.3 0,10.6 -8.7,19.3 -19.3,19.3 z"
           id="path6928" />
        <path
           style="fill:#d4af37"
           inkscape:connector-curvature="0"
           d="m 16.5,341.2 c 0,0.4 -0.1,0.9 -0.1,1.3 l 0,60.7 c 4.1,1.7 8.6,2.7 12.9,2.7 l 34.4,0 0,-64.7 0.3,0 c 0,0 0,-0.1 0,-0.1 0,-13 -10.6,-23.6 -23.7,-23.6 -13.1,0.1 -23.8,10.6 -23.8,23.7 z m 4.7,0.4 c 0,-10.7 8.7,-19.3 19.3,-19.3 10.7,0 19.3,8.7 19.3,19.3 0,10.7 -8.6,19.3 -19.3,19.3 -10.6,0 -19.3,-8.7 -19.3,-19.3 z"
           id="path6930" />
      </g>
      <g
         id="g6932">
        <polygon
           style="fill:#273ee2"
           points="173.3,0 115.2,0 115.2,56.7 "
           id="polygon6934" />
        <path
           style="fill:#273ee2"
           inkscape:connector-curvature="0"
           d="M 114.4,0 26.1,0 C 12.3,2.1 0.2,13.3 0.2,27.7 l 0,83.9 L 114.4,0 Z"
           id="path6936" />
        <polygon
           style="fill:#273ee2"
           points="202.7,0 173.2,0 173.2,27.9 "
           id="polygon6938" />
      </g>
      <g
         id="g6940">
        <g
           id="g6942">
          <path
             inkscape:connector-curvature="0"
             d="m 35.9,376.4 c 0,-2.8 2.1,-5.1 5.5,-5.1 3.3,0 5.5,2.4 5.5,5.1 l 0,4.7 c 0,2.8 -2.2,5.1 -5.5,5.1 -3.3,0 -5.5,-2.4 -5.5,-5.1 l 0,-4.7 z m 7.6,0 c 0,-1.3 -0.8,-2.3 -2.2,-2.3 -1.3,0 -2.1,1.1 -2.1,2.3 l 0,4.7 c 0,1.2 0.8,2.3 2.1,2.3 1.3,0 2.2,-1.1 2.2,-2.3 l 0,-4.7 z"
             id="path6944" />
        </g>
      </g>
      <g
         id="g6946">
        <g
           id="g6948">
          <path
             inkscape:connector-curvature="0"
             d="m 136.5,374.1 c 2.8,0 3.4,-0.8 3.4,-2.5 l 2.9,0 0,14.3 -3.4,0 0,-9.5 -3,0 0,-2.3 z"
             id="path6950" />
        </g>
      </g>
      <g
         id="g6952">
        <g
           id="g6954">
          <path
             inkscape:connector-curvature="0"
             d="m 248.9,378.5 c 1.7,-1 3,-1.7 3,-3.1 0,-1.1 -0.7,-1.6 -1.6,-1.6 -1,0 -1.8,0.6 -1.8,2.1 l -3.3,0 c 0,-2.6 1.8,-4.6 5.1,-4.6 2.6,0 4.9,1.3 4.9,4.3 0,2.4 -2.3,3.9 -3.8,4.7 -2,1.3 -2.5,1.8 -2.5,2.9 l 6.1,0 0,2.7 -10,0 c 0.1,-4.7 1.7,-6 3.9,-7.4 z"
             id="path6956" />
        </g>
      </g>
      <g
         id="g6958">
        <path
           style="fill:#273ee2"
           inkscape:connector-curvature="0"
           d="m 230.9,69.7 c -2.9,0 -5.3,2.4 -5.3,5.3 0,2.9 2.4,5.3 5.3,5.3 2.9,0 5.3,-2.4 5.3,-5.3 -0.1,-2.9 -2.4,-5.3 -5.3,-5.3"
           id="path6960" />
        <path
           style="fill:#273ee2"
           inkscape:connector-curvature="0"
           d="m 270.2,50.2 0,0 -39.5,0 0,0 c -14.1,0.1 -24.6,10.7 -24.6,24.8 0,13.9 10.4,24.4 24.3,24.7 l 0,0 39.6,0 c 14.2,0 24.8,-10.6 24.8,-24.7 0,-14 -10.6,-24.7 -24.6,-24.8 m -0.2,39 0,0 -39.3,0 c -7.7,-0.1 -14,-6.4 -14,-14.2 0,-7.8 6.4,-14.2 14.2,-14.2 l 39.1,0 c 7.8,0 14.2,6.4 14.2,14.2 0,7.9 -6.4,14.2 -14.2,14.2"
           id="path6962" />
        <path
           style="fill:#273ee2"
           inkscape:connector-curvature="0"
           d="m 269.9,80.3 c 2.9,0 5.3,-2.4 5.3,-5.3 0,-2.9 -2.4,-5.3 -5.3,-5.3 -2.9,0 -5.3,2.4 -5.3,5.3 0.1,2.9 2.4,5.3 5.3,5.3"
           id="path6964" />
        <rect
           style="fill:#979797"
           x="168.8"
           y="126.2"
           width="8.1999998"
           height="16"
           id="rect6966" />
        <rect
           style="fill:#e32924"
           x="169"
           y="130.5"
           width="7.8000002"
           height="7"
           id="rect6968" />
        <rect
           style="fill:#979797"
           x="207.5"
           y="126.2"
           width="8.1999998"
           height="16"
           id="rect6970" />
        <rect
           style="fill:#e32924"
           x="207.7"
           y="130.5"
           width="7.6999998"
           height="7"
           id="rect6972" />
        <rect
           style="fill:#979797"
           x="246.2"
           y="126.2"
           width="8.1999998"
           height="16"
           id="rect6974" />
        <rect
           style="fill:#e32924"
           x="246.5"
           y="130.5"
           width="7.6999998"
           height="7"
           id="rect6976" />
        <rect
           style="fill:#979797"
           x="285"
           y="126.2"
           width="8.1999998"
           height="16"
           id="rect6978" />
        <rect
           style="fill:#e32924"
           x="285.20001"
           y="130.5"
           width="7.6999998"
           height="7"
           id="rect6980" />
        <rect
           style="fill:#979797"
           x="323.70001"
           y="126.2"
           width="8.1999998"
           height="16"
           id="rect6982" />
        <rect
           style="fill:#e32924"
           x="324"
           y="130.5"
           width="7.6999998"
           height="7"
           id="rect6984" />
        <rect
           style="fill:#979797"
           x="168.8"
           y="164.8"
           width="8.1999998"
           height="16"
           id="rect6986" />
        <rect
           style="fill:#e32924"
           x="169"
           y="169.2"
           width="7.8000002"
           height="7"
           id="rect6988" />
        <rect
           style="fill:#979797"
           x="207.5"
           y="164.8"
           width="8.1999998"
           height="16"
           id="rect6990" />
        <rect
           style="fill:#e32924"
           x="207.7"
           y="169.2"
           width="7.6999998"
           height="7"
           id="rect6992" />
        <rect
           style="fill:#979797"
           x="246.2"
           y="164.8"
           width="8.1999998"
           height="16"
           id="rect6994" />
        <rect
           style="fill:#e32924"
           x="246.5"
           y="169.2"
           width="7.6999998"
           height="7"
           id="rect6996" />
        <rect
           style="fill:#979797"
           x="285"
           y="164.8"
           width="8.1999998"
           height="16"
           id="rect6998" />
        <rect
           style="fill:#e32924"
           x="285.20001"
           y="169.2"
           width="7.6999998"
           height="7"
           id="rect7000" />
        <rect
           style="fill:#979797"
           x="323.70001"
           y="164.8"
           width="8.1999998"
           height="16"
           id="rect7002" />
        <rect
           style="fill:#e32924"
           x="324"
           y="169.2"
           width="7.6999998"
           height="7"
           id="rect7004" />
        <rect
           style="fill:#979797"
           x="168.8"
           y="203.5"
           width="8.1999998"
           height="16"
           id="rect7006" />
        <rect
           style="fill:#e32924"
           x="169"
           y="207.89999"
           width="7.8000002"
           height="7"
           id="rect7008" />
        <rect
           style="fill:#979797"
           x="207.5"
           y="203.5"
           width="8.1999998"
           height="16"
           id="rect7010" />
        <rect
           style="fill:#e32924"
           x="207.7"
           y="207.89999"
           width="7.6999998"
           height="7"
           id="rect7012" />
        <rect
           style="fill:#979797"
           x="246.2"
           y="203.5"
           width="8.1999998"
           height="16"
           id="rect7014" />
        <rect
           style="fill:#e32924"
           x="246.5"
           y="207.89999"
           width="7.6999998"
           height="7"
           id="rect7016" />
        <rect
           style="fill:#979797"
           x="285"
           y="203.5"
           width="8.1999998"
           height="16"
           id="rect7018" />
        <rect
           style="fill:#e32924"
           x="285.20001"
           y="207.89999"
           width="7.6999998"
           height="7"
           id="rect7020" />
        <rect
           style="fill:#979797"
           x="323.70001"
           y="203.5"
           width="8.1999998"
           height="16"
           id="rect7022" />
        <rect
           style="fill:#e32924"
           x="324"
           y="207.89999"
           width="7.6999998"
           height="7"
           id="rect7024" />
        <rect
           style="fill:#979797"
           x="168.8"
           y="242.3"
           width="8.1999998"
           height="16"
           id="rect7026" />
        <rect
           style="fill:#e32924"
           x="169"
           y="246.60001"
           width="7.8000002"
           height="7"
           id="rect7028" />
        <rect
           style="fill:#979797"
           x="207.5"
           y="242.3"
           width="8.1999998"
           height="16"
           id="rect7030" />
        <rect
           style="fill:#e32924"
           x="207.7"
           y="246.60001"
           width="7.6999998"
           height="7"
           id="rect7032" />
        <rect
           style="fill:#979797"
           x="246.2"
           y="242.3"
           width="8.1999998"
           height="16"
           id="rect7034" />
        <rect
           style="fill:#e32924"
           x="246.5"
           y="246.60001"
           width="7.6999998"
           height="7"
           id="rect7036" />
        <rect
           style="fill:#979797"
           x="285"
           y="242.3"
           width="8.1999998"
           height="16"
           id="rect7038" />
        <rect
           style="fill:#e32924"
           x="285.20001"
           y="246.60001"
           width="7.6999998"
           height="7"
           id="rect7040" />
        <rect
           style="fill:#979797"
           x="323.70001"
           y="242.3"
           width="8.1999998"
           height="16"
           id="rect7042" />
        <rect
           style="fill:#e32924"
           x="324"
           y="246.60001"
           width="7.6999998"
           height="7"
           id="rect7044" />
        <rect
           style="fill:#979797"
           x="168.8"
           y="281"
           width="8.1999998"
           height="16"
           id="rect7046" />
        <rect
           style="fill:#e32924"
           x="169"
           y="285.39999"
           width="7.8000002"
           height="7"
           id="rect7048" />
        <rect
           style="fill:#979797"
           x="207.5"
           y="281"
           width="8.1999998"
           height="16"
           id="rect7050" />
        <rect
           style="fill:#e32924"
           x="207.7"
           y="285.39999"
           width="7.6999998"
           height="7"
           id="rect7052" />
        <rect
           style="fill:#979797"
           x="246.2"
           y="281"
           width="8.1999998"
           height="16"
           id="rect7054" />
        <rect
           style="fill:#e32924"
           x="246.5"
           y="285.39999"
           width="7.6999998"
           height="7"
           id="rect7056" />
        <rect
           style="fill:#979797"
           x="285"
           y="281"
           width="8.1999998"
           height="16"
           id="rect7058" />
        <rect
           style="fill:#e32924"
           x="285.20001"
           y="285.39999"
           width="7.6999998"
           height="7"
           id="rect7060" />
        <rect
           style="fill:#979797"
           x="323.70001"
           y="281"
           width="8.1999998"
           height="16"
           id="rect7062" />
        <rect
           style="fill:#e32924"
           x="324"
           y="285.39999"
           width="7.6999998"
           height="7"
           id="rect7064" />
        <path
           style="fill:#979797"
           inkscape:connector-curvature="0"
           d="m 474.6,232.6 -56.2,0 c -0.5,0 -1,-0.4 -1,-1 l 0,-56.2 c 0,-0.5 0.4,-1 1,-1 l 56.2,0 c 0.5,0 1,0.4 1,1 l 0,56.2 c -0.1,0.6 -0.5,1 -1,1"
           id="path7066" />
        <path
           style="fill:none;stroke:#010202;stroke-width:0.2057;stroke-miterlimit:10"
           inkscape:connector-curvature="0"
           stroke-miterlimit="10"
           d="m 474.6,232.6 -56.2,0 c -0.5,0 -1,-0.4 -1,-1 l 0,-56.2 c 0,-0.5 0.4,-1 1,-1 l 56.2,0 c 0.5,0 1,0.4 1,1 l 0,56.2 c -0.1,0.6 -0.5,1 -1,1 z"
           id="path7068" />
        <path
           inkscape:connector-curvature="0"
           d="m 462.2,203.5 c 0,8.7 -7,15.7 -15.7,15.7 -8.7,0 -15.7,-7 -15.7,-15.7 0,-8.7 7,-15.7 15.7,-15.7 8.6,0 15.7,7.1 15.7,15.7"
           id="path7070" />
        <path
           style="fill:none;stroke:#000000;stroke-width:0.1028;stroke-miterlimit:10"
           inkscape:connector-curvature="0"
           stroke-miterlimit="10"
           d="m 462.2,203.5 c 0,8.7 -7,15.7 -15.7,15.7 -8.7,0 -15.7,-7 -15.7,-15.7 0,-8.7 7,-15.7 15.7,-15.7 8.6,0 15.7,7.1 15.7,15.7 z"
           id="path7072" />
        <path
           style="fill:#979797"
           inkscape:connector-curvature="0"
           d="m 82.3,232.6 -56.1,0 c -0.5,0 -1,-0.4 -1,-1 l 0,-56.2 c 0,-0.5 0.4,-1 1,-1 l 56.2,0 c 0.5,0 1,0.4 1,1 l 0,56.2 c -0.1,0.6 -0.5,1 -1.1,1"
           id="path7074" />
        <path
           style="fill:none;stroke:#010202;stroke-width:0.2057;stroke-miterlimit:10"
           inkscape:connector-curvature="0"
           stroke-miterlimit="10"
           d="m 82.3,232.6 -56.1,0 c -0.5,0 -1,-0.4 -1,-1 l 0,-56.2 c 0,-0.5 0.4,-1 1,-1 l 56.2,0 c 0.5,0 1,0.4 1,1 l 0,56.2 c -0.1,0.6 -0.5,1 -1.1,1 z"
           id="path7076" />
        <path
           inkscape:connector-curvature="0"
           d="m 69.9,203.5 c 0,8.7 -7,15.7 -15.7,15.7 -8.7,0 -15.7,-7 -15.7,-15.7 0,-8.7 7,-15.7 15.7,-15.7 8.7,0 15.7,7.1 15.7,15.7"
           id="path7078" />
        <path
           style="fill:none;stroke:#000000;stroke-width:0.1028;stroke-miterlimit:10"
           inkscape:connector-curvature="0"
           stroke-miterlimit="10"
           d="m 69.9,203.5 c 0,8.7 -7,15.7 -15.7,15.7 -8.7,0 -15.7,-7 -15.7,-15.7 0,-8.7 7,-15.7 15.7,-15.7 8.7,0 15.7,7.1 15.7,15.7 z"
           id="path7080" />
      </g>
      <path
         style="fill:#273ee2"
         inkscape:connector-curvature="0"
         d="m 22.7,274.1 31.7,0 0,-31.7 c 0,0 -29.6,29.5 -31.7,31.7 z"
         id="path7082" />
      <g
         id="g7084">
        <path
           inkscape:connector-curvature="0"
           d="m 48.4,270.9 -0.6,-1.7 -5.1,0 -0.6,1.7 -3.5,0 5.1,-14.3 3.1,0 5.2,14.3 -3.6,0 z m -3.1,-10.2 -1.8,5.9 3.5,0 -1.7,-5.9 z"
           id="path7086" />
      </g>
      <polygon
         style="fill:#273ee2"
         points="446.5,132.8 478.2,132.8 446.5,164.6 "
         id="polygon7088" />
      <g
         id="g7090">
        <path
           inkscape:connector-curvature="0"
           d="m 449.4,135.8 5.9,0 c 3.9,0 4.7,2.4 4.7,3.9 0,1.8 -1.4,2.9 -2.5,3.2 0.9,0 2.6,1.1 2.6,3.3 0,1.5 -0.8,4 -4.7,4 l -6,0 0,-14.4 z m 5.3,5.9 c 1.6,0 2,-1 2,-1.7 0,-0.6 -0.3,-1.7 -2,-1.7 l -2,0 0,3.4 2,0 z m -2,2.4 0,3.5 2.1,0 c 1.6,0 2,-1 2,-1.8 0,-0.7 -0.4,-1.8 -2,-1.8 l -2.1,0 z"
           id="path7092" />
      </g>
      <g
         id="g7094">
        <path
           inkscape:connector-curvature="0"
           d="m 352.1,381.1 c 0,1.6 0.9,2.5 2.2,2.5 1.2,0 1.9,-0.9 1.9,-1.9 0,-1.2 -0.6,-2 -2.1,-2 l -1.3,0 0,-2.6 1.3,0 c 1.5,0 1.9,-0.7 1.9,-1.8 0,-1.1 -0.7,-1.6 -1.6,-1.6 -1.4,0 -1.8,0.8 -1.8,2.1 l -3.3,0 c 0,-2.4 1.5,-4.6 5.1,-4.6 2.6,0 5,1.3 5,4 0,1.6 -1,2.8 -2.1,3.2 1.3,0.5 2.3,1.6 2.3,3.5 0,2.7 -2.4,4.3 -5.2,4.3 -3.5,0 -5.5,-2.1 -5.5,-5.1 l 3.2,0 z"
           id="path7096" />
        <path
           inkscape:connector-curvature="0"
           d="m 368.5,385.9 -3.1,0 -5.1,-14.3 3.5,0 3.1,10.1 3.1,-10.1 3.6,0 -5.1,14.3 z"
           id="path7098" />
      </g>
      <g
         id="g7100">
        <g
           id="g7102">
          <path
             inkscape:connector-curvature="0"
             d="m 444.4,378.3 7.4,0 0,2.5 -1.5,0 c -0.6,3.3 -3,5.5 -7.1,5.5 -4.8,0 -7.5,-3.5 -7.5,-7.5 0,-3.9 2.8,-7.5 7.5,-7.5 3.8,0 6.4,2.3 6.6,5 l -3.5,0 c -0.2,-1.1 -1.4,-2.2 -3.1,-2.2 -2.7,0 -4.1,2.3 -4.1,4.7 0,2.5 1.4,4.7 4.4,4.7 2,0 3.2,-1.2 3.4,-2.7 l -2.5,0 0,-2.5 z"
             id="path7104" />
        </g>
      </g>
      <g
         id="g7106">
        <g
           id="g7108">
          <path
             inkscape:connector-curvature="0"
             d="m 461.4,380.9 0,-9.3 3.3,0 0,14.3 -3.5,0 -5.2,-9.2 0,9.2 -3.3,0 0,-14.3 3.5,0 5.2,9.3 z"
             id="path7110" />
          <path
             inkscape:connector-curvature="0"
             d="m 472.7,371.6 c 4.8,0 7.5,3.5 7.5,7.2 0,3.7 -2.7,7.2 -7.5,7.2 l -5.3,0 0,-14.3 5.3,0 z m -1.9,2.8 0,8.6 1.8,0 c 2.7,0 4.2,-2.1 4.2,-4.3 0,-2.2 -1.6,-4.3 -4.2,-4.3 l -1.8,0 z"
             id="path7112" />
        </g>
      </g>
    </g>
    <use
       x="0"
       y="0"
       inkscape:tiled-clone-of="#Layer_1"
       xlink:href="#Layer_1"
       id="use7709"
       width="100%"
       height="100%" />
    <use
       x="0"
       y="0"
       inkscape:tiled-clone-of="#Layer_1"
       xlink:href="#Layer_1"
       transform="translate(0,118.16292)"
       id="use7711"
       width="100%"
       height="100%" />
    <use
       x="0"
       y="0"
       inkscape:tiled-clone-of="#Layer_1"
       xlink:href="#Layer_1"
       transform="translate(0,236.32584)"
       id="use7713"
       width="100%"
       height="100%" />
    <use
       x="0"
       y="0"
       inkscape:tiled-clone-of="#Layer_1"
       xlink:href="#Layer_1"
       transform="translate(0,354.48876)"
       id="use7715"
       width="100%"
       height="100%" />
    <use
       x="0"
       y="0"
       inkscape:tiled-clone-of="#Layer_1"
       xlink:href="#Layer_1"
       transform="translate(0,472.65167)"
       id="use7717"
       width="100%"
       height="100%" />
    <use
       x="0"
       y="0"
       inkscape:tiled-clone-of="#Layer_1"
       xlink:href="#Layer_1"
       transform="translate(144.99696)"
       id="use7719"
       width="100%"
       height="100%" />
    <use
       x="0"
       y="0"
       inkscape:tiled-clone-of="#Layer_1"
       xlink:href="#Layer_1"
       transform="translate(144.99696,118.16292)"
       id="use7721"
       width="100%"
       height="100%" />
    <use
       x="0"
       y="0"
       inkscape:tiled-clone-of="#Layer_1"
       xlink:href="#Layer_1"
       transform="translate(144.99696,236.32584)"
       id="use7723"
       width="100%"
       height="100%" />
    <use
       x="0"
       y="0"
       inkscape:tiled-clone-of="#Layer_1"
       xlink:href="#Layer_1"
       transform="translate(144.99696,354.48876)"
       id="use7725"
       width="100%"
       height="100%" />
    <use
       x="0"
       y="0"
       inkscape:tiled-clone-of="#Layer_1"
       xlink:href="#Layer_1"
       transform="translate(144.99696,472.65167)"
       id="use7727"
       width="100%"
       height="100%" />
    <use
       x="0"
       y="0"
       inkscape:tiled-clone-of="#Layer_1"
       xlink:href="#Layer_1"
       transform="translate(289.99391)"
       id="use7729"
       width="100%"
       height="100%" />
    <use
       x="0"
       y="0"
       inkscape:tiled-clone-of="#Layer_1"
       xlink:href="#Layer_1"
       transform="translate(289.99391,118.16292)"
       id="use7731"
       width="100%"
       height="100%" />
    <use
       x="0"
       y="0"
       inkscape:tiled-clone-of="#Layer_1"
       xlink:href="#Layer_1"
       transform="translate(289.99391,236.32584)"
       id="use7733"
       width="100%"
       height="100%" />
    <use
       x="0"
       y="0"
       inkscape:tiled-clone-of="#Layer_1"
       xlink:href="#Layer_1"
       transform="translate(289.99391,354.48876)"
       id="use7735"
       width="100%"
       height="100%" />
    <use
       x="0"
       y="0"
       inkscape:tiled-clone-of="#Layer_1"
       xlink:href="#Layer_1"
       transform="translate(289.99391,472.65167)"
       id="use7737"
       width="100%"
       height="100%" />
    <use
       x="0"
       y="0"
       inkscape:tiled-clone-of="#Layer_1"
       xlink:href="#Layer_1"
       transform="translate(434.99087)"
       id="use7739"
       width="100%"
       height="100%" />
    <use
       x="0"
       y="0"
       inkscape:tiled-clone-of="#Layer_1"
       xlink:href="#Layer_1"
       transform="translate(434.99087,118.16292)"
       id="use7741"
       width="100%"
       height="100%" />
    <use
       x="0"
       y="0"
       inkscape:tiled-clone-of="#Layer_1"
       xlink:href="#Layer_1"
       transform="translate(434.99087,236.32584)"
       id="use7743"
       width="100%"
       height="100%" />
    <use
       x="0"
       y="0"
       inkscape:tiled-clone-of="#Layer_1"
       xlink:href="#Layer_1"
       transform="translate(434.99087,354.48876)"
       id="use7745"
       width="100%"
       height="100%" />
    <use
       x="0"
       y="0"
       inkscape:tiled-clone-of="#Layer_1"
       xlink:href="#Layer_1"
       transform="translate(434.99087,472.65167)"
       id="use7747"
       width="100%"
       height="100%" />
    <use
       x="0"
       y="0"
       inkscape:tiled-clone-of="#Layer_1"
       xlink:href="#Layer_1"
       transform="translate(579.98783)"
       id="use7749"
       width="100%"
       height="100%" />
    <use
       x="0"
       y="0"
       inkscape:tiled-clone-of="#Layer_1"
       xlink:href="#Layer_1"
       transform="translate(579.98783,118.16292)"
       id="use7751"
       width="100%"
       height="100%" />
    <use
       x="0"
       y="0"
       inkscape:tiled-clone-of="#Layer_1"
       xlink:href="#Layer_1"
       transform="translate(579.98783,236.32584)"
       id="use7753"
       width="100%"
       height="100%" />
    <use
       x="0"
       y="0"
       inkscape:tiled-clone-of="#Layer_1"
       xlink:href="#Layer_1"
       transform="translate(579.98783,354.48876)"
       id="use7755"
       width="100%"
       height="100%" />
    <use
       x="0"
       y="0"
       inkscape:tiled-clone-of="#Layer_1"
       xlink:href="#Layer_1"
       transform="translate(579.98783,472.65167)"
       id="use7757"
       width="100%"
       height="100%" />
    <use
       x="0"
       y="0"
       inkscape:tiled-clone-of="#Layer_1"
       xlink:href="#Layer_1"
       transform="translate(724.98478)"
       id="use7759"
       width="100%"
       height="100%" />
    <use
       x="0"
       y="0"
       inkscape:tiled-clone-of="#Layer_1"
       xlink:href="#Layer_1"
       transform="translate(724.98478,118.16292)"
       id="use7761"
       width="100%"
       height="100%" />
    <use
       x="0"
       y="0"
       inkscape:tiled-clone-of="#Layer_1"
       xlink:href="#Layer_1"
       transform="translate(724.98478,236.32584)"
       id="use7763"
       width="100%"
       height="100%" />
    <use
       x="0"
       y="0"
       inkscape:tiled-clone-of="#Layer_1"
       xlink:href="#Layer_1"
       transform="translate(724.98478,354.48876)"
       id="use7765"
       width="100%"
       height="100%" />
    <use
       x="0"
       y="0"
       inkscape:tiled-clone-of="#Layer_1"
       xlink:href="#Layer_1"
       transform="translate(724.98478,472.65167)"
       id="use7767"
       width="100%"
       height="100%" />
    <use
       x="0"
       y="0"
       inkscape:tiled-clone-of="#Layer_1"
       xlink:href="#Layer_1"
       transform="translate(869.98174)"
       id="use7769"
       width="100%"
       height="100%" />
    <use
       x="0"
       y="0"
       inkscape:tiled-clone-of="#Layer_1"
       xlink:href="#Layer_1"
       transform="translate(869.98174,118.16292)"
       id="use7771"
       width="100%"
       height="100%" />
    <use
       x="0"
       y="0"
       inkscape:tiled-clone-of="#Layer_1"
       xlink:href="#Layer_1"
       transform="translate(869.98174,236.32584)"
       id="use7773"
       width="100%"
       height="100%" />
    <use
       x="0"
       y="0"
       inkscape:tiled-clone-of="#Layer_1"
       xlink:href="#Layer_1"
       transform="translate(869.98174,354.48876)"
       id="use7775"
       width="100%"
       height="100%" />
    <use
       x="0"
       y="0"
       inkscape:tiled-clone-of="#Layer_1"
       xlink:href="#Layer_1"
       transform="translate(869.98174,472.65167)"
       id="use7777"
       width="100%"
       height="100%" />
    <use
       x="0"
       y="0"
       inkscape:tiled-clone-of="#Layer_1"
       xlink:href="#Layer_1"
       transform="translate(1014.9787)"
       id="use7779"
       width="100%"
       height="100%" />
    <use
       x="0"
       y="0"
       inkscape:tiled-clone-of="#Layer_1"
       xlink:href="#Layer_1"
       transform="translate(1014.9787,118.16292)"
       id="use7781"
       width="100%"
       height="100%" />
    <use
       x="0"
       y="0"
       inkscape:tiled-clone-of="#Layer_1"
       xlink:href="#Layer_1"
       transform="translate(1014.9787,236.32584)"
       id="use7783"
       width="100%"
       height="100%" />
    <use
       x="0"
       y="0"
       inkscape:tiled-clone-of="#Layer_1"
       xlink:href="#Layer_1"
       transform="translate(1014.9787,354.48876)"
       id="use7785"
       width="100%"
       height="100%" />
    <use
       x="0"
       y="0"
       inkscape:tiled-clone-of="#Layer_1"
       xlink:href="#Layer_1"
       transform="translate(1014.9787,472.65167)"
       id="use7787"
       width="100%"
       height="100%" />
    <text
       xml:space="preserve"
       style="font-style:normal;font-weight:normal;font-size:62.88658142px;line-height:125%;font-family:sans-serif;letter-spacing:0px;word-spacing:0px;fill:#000000;fill-opacity:1;stroke:none;stroke-width:0.26458332px;stroke-linecap:butt;stroke-linejoin:miter;stroke-opacity:1"
       x="487.31625"
       y="756.9859"
       id="text7789"
       sodipodi:linespacing="125%"><tspan
         sodipodi:role="line"
         id="tspan7791"
         x="487.31625"
         y="756.9859"
         style="stroke-width:0.26458332px">Beat</tspan></text>
    <path
       inkscape:connector-curvature="0"
       id="path7810"
       style="font-style:normal;font-weight:normal;font-size:medium;line-height:125%;font-family:sans-serif;letter-spacing:0px;word-spacing:0px;fill:#000000;fill-opacity:1;stroke:none;stroke-width:0.26458332px;stroke-linecap:butt;stroke-linejoin:miter;stroke-opacity:1"
       d="m 31.35838,641.50199 0,-2.85081 q 4.028314,-0.3925 5.618981,-1.30146 1.590668,-0.92961 2.375673,-4.35884 l 2.933438,0 0,29.45834 -3.966339,0 0,-20.94723 -6.961753,0 z" />
    <path
       inkscape:connector-curvature="0"
       id="path7812"
       style="font-style:normal;font-weight:normal;font-size:medium;line-height:125%;font-family:sans-serif;letter-spacing:0px;word-spacing:0px;fill:#000000;fill-opacity:1;stroke:none;stroke-width:0.26458332px;stroke-linecap:butt;stroke-linejoin:miter;stroke-opacity:1"
       d="m 172.55618,662.44922 q 0.20658,-3.82173 1.57001,-6.65188 1.38409,-2.83015 5.37108,-5.14385 l 3.96634,-2.29304 q 2.66489,-1.54935 3.73911,-2.64423 1.69395,-1.71461 1.69395,-3.92502 0,-2.58225 -1.54935,-4.09029 -1.54935,-1.52869 -4.1316,-1.52869 -3.82174,0 -5.28845,2.89212 -0.78501,1.54935 -0.86764,4.29687 l -3.78042,0 q 0.062,-3.86305 1.4254,-6.3007 2.41699,-4.29687 8.53177,-4.29687 5.08187,0 7.41623,2.74752 2.35501,2.74752 2.35501,6.11477 0,3.55318 -2.49962,6.07346 -1.44606,1.46672 -5.18516,3.55318 l -2.83015,1.57001 q -2.02449,1.11553 -3.18134,2.12778 -2.0658,1.79725 -2.60291,3.987 l 16.15457,0 0,3.51186 -20.30683,0 z" />
    <path
       inkscape:connector-curvature="0"
       id="path7814"
       style="font-style:normal;font-weight:normal;font-size:medium;line-height:125%;font-family:sans-serif;letter-spacing:0px;word-spacing:0px;fill:#000000;fill-opacity:1;stroke:none;stroke-width:0.26458332px;stroke-linecap:butt;stroke-linejoin:miter;stroke-opacity:1"
       d="m 328.37985,663.25488 q -5.24713,0 -7.6228,-2.87146 -2.35502,-2.89213 -2.35502,-7.02373 l 3.88371,0 q 0.24789,2.87146 1.07422,4.17292 1.44606,2.33436 5.22647,2.33436 2.93344,0 4.71003,-1.57001 1.77659,-1.57001 1.77659,-4.04898 0,-3.05738 -1.87988,-4.27621 -1.85922,-1.21882 -5.18516,-1.21882 -0.37184,0 -0.76435,0.0207 -0.37184,0 -0.76434,0.0207 l 0,-3.28463 q 0.57842,0.062 0.97092,0.0826 0.39251,0.0207 0.84698,0.0207 2.08646,0 3.42923,-0.66105 2.35502,-1.15685 2.35502,-4.13161 0,-2.21041 -1.57001,-3.40857 -1.57001,-1.19817 -3.65647,-1.19817 -3.71844,0 -5.14385,2.47897 -0.785,1.36343 -0.88829,3.8837 l -3.67713,0 q 0,-3.30528 1.32211,-5.61898 2.27239,-4.1316 7.99466,-4.1316 4.5241,0 7.00307,2.02448 2.47896,2.00383 2.47896,5.82557 0,2.72685 -1.46672,4.42081 -0.90895,1.05356 -2.35502,1.65264 2.33436,0.6404 3.63582,2.47897 1.32211,1.8179 1.32211,4.46213 0,4.23489 -2.78883,6.89978 -2.78884,2.66488 -7.91203,2.66488 z" />
    <path
       inkscape:connector-curvature="0"
       id="path7816"
       style="font-style:normal;font-weight:normal;font-size:medium;line-height:125%;font-family:sans-serif;letter-spacing:0px;word-spacing:0px;fill:#000000;fill-opacity:1;stroke:none;stroke-width:0.26458332px;stroke-linecap:butt;stroke-linejoin:miter;stroke-opacity:1"
       d="m 477.0868,651.9756 0,-13.40705 -9.48203,13.40705 9.48203,0 z m 0.062,10.47362 0,-7.23031 -12.97323,0 0,-3.63581 13.55166,-18.7988 3.14002,0 0,19.1913 4.35884,0 0,3.24331 -4.35884,0 0,7.23031 -3.71845,0 z" />
    <path
       inkscape:connector-curvature="0"
       id="path7818"
       style="font-style:normal;font-weight:normal;font-size:medium;line-height:125%;font-family:sans-serif;letter-spacing:0px;word-spacing:0px;fill:#000000;fill-opacity:1;stroke:none;stroke-width:0.26458332px;stroke-linecap:butt;stroke-linejoin:miter;stroke-opacity:1"
       d="m 614.33897,654.90904 q 0.37185,3.18134 2.9541,4.40016 1.32211,0.61974 3.05739,0.61974 3.30528,0 4.89595,-2.10712 1.59067,-2.10712 1.59067,-4.66871 0,-3.0987 -1.90054,-4.79266 -1.87988,-1.69396 -4.52411,-1.69396 -1.92119,0 -3.30528,0.74369 -1.36343,0.74369 -2.33436,2.0658 l -3.22265,-0.18592 2.25173,-15.92733 15.36956,0 0,3.59449 -12.58073,0 -1.26014,8.22189 q 1.0329,-0.785 1.96251,-1.1775 1.65264,-0.68172 3.82173,-0.68172 4.06963,0 6.89978,2.62357 2.83015,2.62357 2.83015,6.65188 0,4.19358 -2.60291,7.39557 -2.58225,3.202 -8.26321,3.202 -3.61515,0 -6.40398,-2.02449 -2.76818,-2.04514 -3.09871,-6.25938 l 3.86305,0 z" />
    <path
       inkscape:connector-curvature="0"
       id="path7820"
       style="font-style:normal;font-weight:normal;font-size:medium;line-height:125%;font-family:sans-serif;letter-spacing:0px;word-spacing:0px;fill:#000000;fill-opacity:1;stroke:none;stroke-width:0.26458332px;stroke-linecap:butt;stroke-linejoin:miter;stroke-opacity:1"
       d="m 767.26014,632.74299 q 4.95792,0 6.89978,2.58225 1.96251,2.56159 1.96251,5.28845 l -3.67713,0 q -0.33053,-1.75593 -1.05356,-2.74751 -1.34277,-1.85923 -4.06963,-1.85923 -3.11936,0 -4.95792,2.89213 -1.83857,2.87146 -2.04515,8.24255 1.2808,-1.87988 3.22266,-2.80949 1.77659,-0.82633 3.96634,-0.82633 3.71844,0 6.48661,2.37568 2.76818,2.37567 2.76818,7.0857 0,4.02831 -2.62357,7.14767 -2.62357,3.09871 -7.4782,3.09871 -4.15227,0 -7.16834,-3.14002 -3.01607,-3.16068 -3.01607,-10.61823 0,-5.51569 1.34277,-9.35808 2.58226,-7.35425 9.44072,-7.35425 z m -0.26855,27.16529 q 2.93343,0 4.3795,-1.96251 1.46671,-1.98317 1.46671,-4.66871 0,-2.27238 -1.30145,-4.31753 -1.30146,-2.0658 -4.73069,-2.0658 -2.39633,0 -4.21423,1.59067 -1.79725,1.59066 -1.79725,4.79266 0,2.80949 1.63198,4.73068 1.65264,1.90054 4.56543,1.90054 z" />
    <path
       inkscape:connector-curvature="0"
       id="path7822"
       style="font-style:normal;font-weight:normal;font-size:medium;line-height:125%;font-family:sans-serif;letter-spacing:0px;word-spacing:0px;fill:#000000;fill-opacity:1;stroke:none;stroke-width:0.26458332px;stroke-linecap:butt;stroke-linejoin:miter;stroke-opacity:1"
       d="m 922.86691,633.36273 0,3.24331 q -1.4254,1.38408 -3.80107,4.81331 -2.35502,3.42924 -4.17292,7.39558 -1.79725,3.86305 -2.72686,7.04438 -0.59908,2.04514 -1.54935,6.58991 l -4.11095,0 q 1.40475,-8.46979 6.19741,-16.85695 2.83015,-4.9166 5.94951,-8.49044 l -16.36116,0 0,-3.7391 20.57539,0 z" />
    <path
       inkscape:connector-curvature="0"
       id="path7824"
       style="font-style:normal;font-weight:normal;font-size:medium;line-height:125%;font-family:sans-serif;letter-spacing:0px;word-spacing:0px;fill:#000000;fill-opacity:1;stroke:none;stroke-width:0.26458332px;stroke-linecap:butt;stroke-linejoin:miter;stroke-opacity:1"
       d="m 1058.5181,645.26175 q 2.4583,0 3.8423,-1.36343 1.3841,-1.38409 1.3841,-3.28463 0,-1.65264 -1.3221,-3.03673 -1.3221,-1.38408 -4.0283,-1.38408 -2.6855,0 -3.8837,1.38408 -1.1982,1.38409 -1.1982,3.24331 0,2.08646 1.5494,3.26397 1.5493,1.17751 3.6565,1.17751 z m 0.2272,14.64653 q 2.5822,0 4.2762,-1.38409 1.7146,-1.40474 1.7146,-4.17292 0,-2.87146 -1.7559,-4.35884 -1.7559,-1.48737 -4.5035,-1.48737 -2.6648,0 -4.3588,1.52869 -1.6733,1.50803 -1.6733,4.19358 0,2.3137 1.5287,4.00765 1.5493,1.6733 4.772,1.6733 z m -5.2885,-13.22113 q -1.5493,-0.66106 -2.4169,-1.54935 -1.632,-1.65264 -1.632,-4.29687 0,-3.30528 2.3963,-5.68096 2.3963,-2.37567 6.7965,-2.37567 4.2555,0 6.6725,2.25173 2.417,2.23106 2.417,5.22648 0,2.76817 -1.4047,4.48279 -0.785,0.97092 -2.4377,1.90053 1.8386,0.84698 2.8921,1.94186 1.9626,2.0658 1.9626,5.37108 0,3.90437 -2.6236,6.63123 -2.6236,2.7062 -7.4162,2.7062 -4.3176,0 -7.313,-2.33436 -2.9747,-2.35501 -2.9747,-6.81715 0,-2.62356 1.2808,-4.5241 1.2808,-1.9212 3.801,-2.93344 z" />
    <text
       sodipodi:linespacing="125%"
       id="text7834"
       y="-183.28772"
       x="-371.34872"
       style="font-style:normal;font-weight:normal;font-size:62.88658142px;line-height:125%;font-family:sans-serif;letter-spacing:0px;word-spacing:0px;fill:#000000;fill-opacity:1;stroke:none;stroke-width:0.26458332px;stroke-linecap:butt;stroke-linejoin:miter;stroke-opacity:1"
       xml:space="preserve"
       transform="rotate(-90)"><tspan
         style="stroke-width:0.26458332px"
         y="-183.28772"
         x="-371.34872"
         id="tspan7836"
         sodipodi:role="line">Pitch</tspan></text>
    <text
       xml:space="preserve"
       style="font-style:normal;font-weight:normal;font-size:54.1404686px;line-height:125%;font-family:sans-serif;letter-spacing:0px;word-spacing:0px;fill:#000000;fill-opacity:1;stroke:none;stroke-width:0.26458329px;stroke-linecap:butt;stroke-linejoin:miter;stroke-opacity:1"
       x="-575.30786"
       y="-79.393967"
       id="text7844"
       sodipodi:linespacing="125%"
       transform="rotate(-90)"><tspan
         sodipodi:role="line"
         id="tspan7846"
         x="-575.30786"
         y="-79.393967"
         style="stroke-width:0.26458329px">low</tspan></text>
    <text
       transform="rotate(-90)"
       sodipodi:linespacing="125%"
       id="text7848"
       y="-79.393967"
       x="-111.85712"
       style="font-style:normal;font-weight:normal;font-size:54.1404686px;line-height:125%;font-family:sans-serif;letter-spacing:0px;word-spacing:0px;fill:#000000;fill-opacity:1;stroke:none;stroke-width:0.26458329px;stroke-linecap:butt;stroke-linejoin:miter;stroke-opacity:1"
       xml:space="preserve"><tspan
         style="stroke-width:0.26458329px"
         y="-79.393967"
         x="-111.85712"
         id="tspan7850"
         sodipodi:role="line">high</tspan></text>
    <path
       style="fill:#000000;fill-rule:evenodd;stroke:#000000;stroke-width:0.26458332px;stroke-linecap:butt;stroke-linejoin:miter;stroke-opacity:1"
       d="m -106.04441,136.27143 0,339.96683 34.216154,0"
       id="path7852"
       inkscape:connector-curvature="0" />
  </g>
</svg>
