<?xml version="1.0" encoding="UTF-8" standalone="no"?>
<!-- Created with Inkscape (http://www.inkscape.org/) -->

<svg
   xmlns:dc="http://purl.org/dc/elements/1.1/"
   xmlns:cc="http://creativecommons.org/ns#"
   xmlns:rdf="http://www.w3.org/1999/02/22-rdf-syntax-ns#"
   xmlns:svg="http://www.w3.org/2000/svg"
   xmlns="http://www.w3.org/2000/svg"
   xmlns:sodipodi="http://sodipodi.sourceforge.net/DTD/sodipodi-0.dtd"
   xmlns:inkscape="http://www.inkscape.org/namespaces/inkscape"
   width="600mm"
   height="400mm"
   viewBox="0 0 600 400"
   id="svg10189"
   version="1.1"
   inkscape:version="0.91+devel+osxmenu r12922"
   sodipodi:docname="tone matrix cut layout sheet 1.svg">
  <defs
     id="defs10191">
    <clipPath
       id="clip2">
      <path
         id="path13149"
         d="M 44 0.472656 L 70 0.472656 L 70 16 L 44 16 Z M 44 0.472656 " />
    </clipPath>
    <clipPath
       id="clip1">
      <rect
         id="rect13152"
         height="130"
         width="95" />
    </clipPath>
    <g
       clip-path="url(#clip1)"
       id="surface2310127">
      <path
         id="path13155"
         d="M 67.921875 98.367188 L 26.148438 98.359375 C 17.921875 98.226562 11.289062 91.515625 11.289062 83.253906 C 11.289062 74.910156 18.054688 68.144531 26.402344 68.144531 L 67.921875 68.144531 C 76.265625 68.144531 83.035156 74.910156 83.035156 83.253906 C 83.035156 91.601562 76.265625 98.367188 67.921875 98.367188 Z M 68.136719 56.910156 L 68.136719 56.902344 L 26.179688 56.902344 L 26.179688 56.910156 C 11.238281 57.023438 0 68.328125 0 83.304688 C 0 98.097656 11.046875 109.289062 25.789062 109.59375 L 25.789062 109.609375 L 67.921875 109.609375 C 82.976562 109.609375 94.328125 98.300781 94.328125 83.304688 C 94.328125 68.324219 83.082031 57.015625 68.136719 56.910156 "
         style=" stroke:none;fill-rule:nonzero;fill:rgb(13.729858%,12.159729%,12.548828%);fill-opacity:1;" />
      <path
         id="path13157"
         d="M 33.277344 81.453125 L 28.960938 77.136719 C 27.984375 76.160156 26.402344 76.160156 25.425781 77.136719 C 24.449219 78.113281 24.449219 79.695312 25.425781 80.675781 C 25.441406 80.6875 25.457031 80.699219 25.472656 80.714844 L 29.707031 84.945312 C 29.71875 84.960938 29.730469 84.976562 29.742188 84.992188 C 30.71875 85.96875 32.300781 85.964844 33.277344 84.992188 C 34.253906 84.015625 34.253906 82.429688 33.277344 81.453125 "
         style=" stroke:none;fill-rule:nonzero;fill:rgb(13.729858%,12.159729%,12.548828%);fill-opacity:1;" />
      <path
         id="path13159"
         d="M 29.742188 81.527344 L 25.425781 85.84375 C 24.449219 86.820312 24.449219 88.402344 25.425781 89.378906 C 26.402344 90.355469 27.984375 90.355469 28.960938 89.378906 C 28.976562 89.363281 28.988281 89.347656 29.003906 89.332031 L 33.234375 85.097656 C 33.246094 85.085938 33.265625 85.078125 33.277344 85.0625 C 34.253906 84.085938 34.253906 82.503906 33.277344 81.527344 C 32.304688 80.550781 30.71875 80.550781 29.742188 81.527344 "
         style=" stroke:none;fill-rule:nonzero;fill:rgb(13.729858%,12.159729%,12.548828%);fill-opacity:1;" />
      <path
         id="path13161"
         d="M 28.761719 80.921875 L 22.65625 80.921875 C 21.273438 80.921875 20.15625 82.039062 20.15625 83.421875 C 20.15625 84.800781 21.273438 85.921875 22.65625 85.921875 C 22.675781 85.921875 22.695312 85.917969 22.71875 85.914062 L 28.703125 85.914062 C 28.722656 85.914062 28.742188 85.921875 28.761719 85.921875 C 30.140625 85.921875 31.261719 84.800781 31.261719 83.421875 C 31.261719 82.042969 30.140625 80.921875 28.761719 80.921875 "
         style=" stroke:none;fill-rule:nonzero;fill:rgb(13.729858%,12.159729%,12.548828%);fill-opacity:1;" />
      <path
         id="path13163"
         d="M 61.640625 85.0625 L 65.957031 89.378906 C 66.933594 90.355469 68.515625 90.355469 69.492188 89.378906 C 70.46875 88.402344 70.46875 86.820312 69.492188 85.84375 C 69.476562 85.828125 69.460938 85.820312 69.445312 85.804688 L 65.210938 81.570312 C 65.199219 81.558594 65.1875 81.539062 65.175781 81.527344 C 64.199219 80.550781 62.617188 80.550781 61.640625 81.527344 C 60.664062 82.503906 60.664062 84.085938 61.640625 85.0625 "
         style=" stroke:none;fill-rule:nonzero;fill:rgb(13.729858%,12.159729%,12.548828%);fill-opacity:1;" />
      <path
         id="path13165"
         d="M 65.175781 84.988281 L 69.492188 80.675781 C 70.46875 79.695312 70.46875 78.113281 69.492188 77.136719 C 68.515625 76.160156 66.933594 76.160156 65.957031 77.136719 C 65.941406 77.152344 65.933594 77.167969 65.914062 77.183594 L 61.683594 81.417969 C 61.671875 81.429688 61.652344 81.441406 61.640625 81.453125 C 60.664062 82.429688 60.664062 84.015625 61.640625 84.988281 C 62.617188 85.964844 64.199219 85.96875 65.175781 84.988281 "
         style=" stroke:none;fill-rule:nonzero;fill:rgb(13.729858%,12.159729%,12.548828%);fill-opacity:1;" />
      <path
         id="path13167"
         d="M 66.15625 85.59375 L 72.261719 85.59375 C 73.644531 85.59375 74.761719 84.476562 74.761719 83.09375 C 74.761719 81.714844 73.644531 80.59375 72.261719 80.59375 C 72.242188 80.59375 72.222656 80.601562 72.199219 80.601562 L 66.214844 80.601562 C 66.195312 80.601562 66.175781 80.59375 66.15625 80.59375 C 64.777344 80.59375 63.65625 81.714844 63.65625 83.09375 C 63.65625 84.476562 64.777344 85.597656 66.15625 85.59375 "
         style=" stroke:none;fill-rule:nonzero;fill:rgb(13.729858%,12.159729%,12.548828%);fill-opacity:1;" />
      <path
         id="path13169"
         d="M 46.945312 42.117188 C 43.257812 42.117188 39.722656 40.09375 38.675781 37.3125 L 46.914062 15.914062 L 55.152344 37.3125 L 55.148438 37.3125 C 54.101562 40.09375 50.636719 42.117188 46.945312 42.117188 Z M 59.753906 36.464844 L 49.070312 8.726562 C 48.789062 7.996094 48.164062 7.46875 47.332031 7.296875 C 47.082031 7.253906 46.707031 7.253906 46.5625 7.285156 L 46.429688 7.304688 C 45.660156 7.46875 45.035156 7.996094 44.757812 8.726562 L 34.074219 36.464844 C 33.863281 37.242188 34.105469 38.375 34.113281 38.40625 C 35.34375 43.347656 40.632812 46.148438 46.945312 46.148438 C 53.078125 46.148438 57.625 43.1875 59.542969 38.519531 C 59.796875 37.898438 60.019531 37.152344 59.753906 36.464844 "
         style=" stroke:none;fill-rule:nonzero;fill:rgb(13.729858%,12.159729%,12.548828%);fill-opacity:1;" />
      <g
         id="g13171"
         clip-rule="nonzero"
         clip-path="url(#clip2)">
        <path
           id="path13173"
           d="M 69.285156 2.191406 C 68.839844 0.871094 67.40625 0.160156 66.085938 0.605469 C 65.347656 0.855469 64.8125 1.414062 64.550781 2.085938 L 62.421875 6.164062 L 58.253906 4.210938 C 57.640625 3.835938 56.875 3.714844 56.136719 3.964844 C 55.40625 4.210938 54.871094 4.765625 54.609375 5.433594 L 54.589844 5.421875 L 52.445312 9.53125 L 48.28125 7.578125 C 47.664062 7.203125 46.898438 7.082031 46.164062 7.328125 C 44.84375 7.777344 44.132812 9.210938 44.578125 10.53125 C 44.824219 11.253906 45.367188 11.785156 46.027344 12.050781 L 46.007812 12.085938 L 52.457031 15.113281 L 52.464844 15.101562 C 53.699219 15.695312 55.183594 15.195312 55.804688 13.972656 L 55.816406 13.976562 L 58.054688 9.691406 L 62.433594 11.746094 L 62.4375 11.734375 C 63.675781 12.328125 65.160156 11.828125 65.78125 10.605469 L 65.792969 10.609375 L 69.089844 4.296875 L 69.054688 4.277344 C 69.417969 3.667969 69.527344 2.914062 69.285156 2.191406 "
           style=" stroke:none;fill-rule:nonzero;fill:rgb(13.729858%,12.159729%,12.548828%);fill-opacity:1;" />
      </g>
      <path
         id="path13175"
         d="M 51.707031 129.199219 L 56.222656 124.683594 C 57.242188 123.664062 57.242188 122.007812 56.222656 120.988281 C 55.203125 119.964844 53.546875 119.964844 52.523438 120.984375 C 52.507812 121.003906 52.496094 121.019531 52.480469 121.035156 L 48.054688 125.464844 C 48.039062 125.476562 48.023438 125.488281 48.007812 125.503906 C 46.988281 126.523438 46.988281 128.179688 48.007812 129.199219 C 49.027344 130.222656 50.6875 130.222656 51.707031 129.199219 "
         style=" stroke:none;fill-rule:nonzero;fill:rgb(13.729858%,12.159729%,12.548828%);fill-opacity:1;" />
      <path
         id="path13177"
         d="M 49.785156 124.769531 L 43.398438 124.769531 C 41.953125 124.769531 40.78125 125.9375 40.78125 127.382812 C 40.78125 128.828125 41.953125 130 43.398438 130 C 43.417969 130 43.4375 129.992188 43.464844 129.992188 L 49.722656 129.992188 C 49.742188 129.992188 49.761719 130 49.785156 130 C 51.226562 130 52.398438 128.828125 52.398438 127.382812 C 52.398438 125.941406 51.226562 124.769531 49.785156 124.769531 "
         style=" stroke:none;fill-rule:nonzero;fill:rgb(13.729858%,12.159729%,12.548828%);fill-opacity:1;" />
    </g>
    <clipPath
       id="clip1-3">
      <rect
         id="rect13210"
         height="76"
         width="95" />
    </clipPath>
    <g
       clip-path="url(#clip1-3)"
       id="surface2316241">
      <path
         id="path13213"
         d="M 67.796875 41.785156 L 26.101562 41.78125 C 17.886719 41.644531 11.269531 34.949219 11.269531 26.703125 C 11.269531 18.371094 18.023438 11.617188 26.355469 11.617188 L 67.796875 11.617188 C 76.121094 11.617188 82.878906 18.371094 82.878906 26.703125 C 82.878906 35.035156 76.121094 41.785156 67.796875 41.785156 Z M 68.007812 0.40625 L 68.007812 0.398438 L 26.128906 0.398438 L 26.128906 0.40625 C 11.21875 0.519531 0 11.804688 0 26.753906 C 0 41.515625 11.023438 52.6875 25.742188 52.988281 L 25.742188 53.003906 L 67.796875 53.003906 C 82.820312 53.003906 94.152344 41.71875 94.152344 26.753906 C 94.152344 11.800781 82.925781 0.511719 68.007812 0.40625 "
         style=" stroke:none;fill-rule:nonzero;fill:rgb(13.729858%,12.159729%,12.548828%);fill-opacity:1;" />
      <path
         id="path13215"
         d="M 26.308594 17.109375 C 23.214844 17.109375 20.707031 19.617188 20.707031 22.707031 C 20.707031 25.796875 23.214844 28.304688 26.308594 28.304688 C 29.394531 28.304688 31.902344 25.796875 31.902344 22.707031 C 31.902344 19.617188 29.394531 17.109375 26.308594 17.109375 "
         style=" stroke:none;fill-rule:nonzero;fill:rgb(13.729858%,12.159729%,12.548828%);fill-opacity:1;" />
      <path
         id="path13217"
         d="M 67.773438 36.296875 C 70.867188 36.296875 73.367188 33.789062 73.367188 30.699219 C 73.367188 27.609375 70.867188 25.101562 67.773438 25.101562 C 64.679688 25.101562 62.175781 27.609375 62.175781 30.699219 C 62.175781 33.789062 64.679688 36.296875 67.773438 36.296875 "
         style=" stroke:none;fill-rule:nonzero;fill:rgb(13.729858%,12.159729%,12.548828%);fill-opacity:1;" />
      <path
         id="path13219"
         d="M 51.816406 71.699219 L 44.679688 64.5625 C 43.695312 63.578125 42.097656 63.578125 41.113281 64.5625 C 40.132812 65.546875 40.128906 67.140625 41.113281 68.125 L 48.242188 75.253906 C 48.246094 75.257812 48.25 75.261719 48.25 75.261719 C 49.234375 76.246094 50.832031 76.246094 51.816406 75.261719 C 52.800781 74.277344 52.800781 72.683594 51.816406 71.699219 "
         style=" stroke:none;fill-rule:nonzero;fill:rgb(13.729858%,12.159729%,12.548828%);fill-opacity:1;" />
      <path
         id="path13221"
         d="M 44.679688 75.261719 L 51.816406 68.125 C 52.800781 67.140625 52.800781 65.546875 51.816406 64.5625 C 50.832031 63.578125 49.234375 63.578125 48.25 64.5625 C 48.25 64.5625 48.25 64.5625 48.246094 64.566406 L 41.121094 71.691406 C 41.121094 71.695312 41.117188 71.695312 41.113281 71.699219 C 40.128906 72.683594 40.132812 74.277344 41.113281 75.261719 C 42.097656 76.246094 43.695312 76.246094 44.679688 75.261719 "
         style=" stroke:none;fill-rule:nonzero;fill:rgb(13.729858%,12.159729%,12.548828%);fill-opacity:1;" />
    </g>
  </defs>
  <sodipodi:namedview
     id="base"
     pagecolor="#ffffff"
     bordercolor="#666666"
     borderopacity="1.0"
     inkscape:pageopacity="0.0"
     inkscape:pageshadow="2"
     inkscape:zoom="0.16523036"
     inkscape:cx="2131.8207"
     inkscape:cy="1045.512"
     inkscape:document-units="mm"
     inkscape:current-layer="layer1"
     showgrid="false"
     inkscape:window-width="1436"
     inkscape:window-height="855"
     inkscape:window-x="0"
     inkscape:window-y="23"
     inkscape:window-maximized="0"
     inkscape:snap-bbox="true"
     inkscape:snap-global="true"
     showguides="true"
     inkscape:guide-bbox="true"
     inkscape:snap-bbox-midpoints="true"
     inkscape:snap-bbox-edge-midpoints="true"
     inkscape:bbox-nodes="true"
     inkscape:bbox-paths="true"
     inkscape:snap-intersection-paths="true"
     inkscape:snap-smooth-nodes="true"
     inkscape:snap-to-guides="true"
     inkscape:object-paths="true"
     inkscape:snap-midpoints="true">
    <sodipodi:guide
       position="106.90781,701.84977"
       orientation="0,1"
       id="guide17517" />
    <sodipodi:guide
       position="562.79459,601.17687"
       orientation="0,1"
       id="guide17570" />
    <sodipodi:guide
       position="562.79459,564.72534"
       orientation="0,1"
       id="guide17572" />
  </sodipodi:namedview>
  <metadata
     id="metadata10194">
    <rdf:RDF>
      <cc:Work
         rdf:about="">
        <dc:format>image/svg+xml</dc:format>
        <dc:type
           rdf:resource="http://purl.org/dc/dcmitype/StillImage" />
        <dc:title></dc:title>
      </cc:Work>
    </rdf:RDF>
  </metadata>
  <g
     inkscape:label="Layer 1"
     inkscape:groupmode="layer"
     id="layer1"
     transform="translate(0,103)">
    <path
       inkscape:tile-y0="422.39084"
       inkscape:tile-x0="1760.0462"
       sodipodi:nodetypes="ccccssccccccccccccsccccccsccccccsccccccscccccccccccccssssccccccccccccccccccccsccccccccccscccccccsccccccccscscccccccscccccccsscscccccccsccccccccscscccccccsccc"
       inkscape:connector-curvature="0"
       id="use9809"
       d="m 70.250139,-5.7326127 0.0878,2.5016988 0.0326,0.9404994 0.16121,4.6178001 0,6.1836003 c 0,0.1447 0.11676,0.2615 0.26149,0.2615 l 26.073874,0 0,9.1169041 -2.99982,0 0,4.9253 3.00032,0 10.374567,0 c 1.75614,0.1707 3.8808,0 6.77682,0.013 l 0.19381,-10.500203 -6.38929,0 -0.19378,-3.5549011 13.48909,0 32.22956,0 c 0.84347,4.1322021 2.66412,8.5967041 5.51389,11.6660041 2.91695,3.1417 5.62383,2.3584 11.60807,2.3885 l 0.1938,-10.499703 -6.38929,0 -0.19378,-3.5548011 13.4891,0 32.22955,0 c 0.84347,4.1322021 2.66409,8.5967041 5.51387,11.6660041 2.91697,3.1417 5.62385,2.3588 11.60809,2.389 l 0.19378,-10.500203 -6.38929,0 -0.19378,-3.5548011 13.48912,0 32.22951,0 c 0.8435,4.1322021 2.6641,8.5967041 5.5139,11.6660041 2.917,3.1417 5.6238,2.3588 11.6081,2.389 l 0.1938,-10.500203 -6.3893,0 -0.1938,-3.5548011 13.4891,0 32.2296,0 c 0.8434,4.1322021 2.6641,8.5967041 5.5139,11.6660041 1.5925,1.7153 3.1265,2.2574 5.1614,2.404 l 0,0.083 3.1244,0 0,-0.1111 2.9998,0 0,-4.9251 -2.9998,0 0,-5.285503 -0.1933,0 0.01,-0.2765 -2.6851,0 -0.1938,-3.5548011 13.4891,0 5.8348,0 c 0.1447,0 0.2609,-0.1168 0.2609,-0.2615 l 0,-10.6846004 c 0,-0.1447 -0.1162,-0.2615 -0.2609,-0.2615 l -0.1023,0 -0.097,-2.7847985 c 0,-0.069 -0.018,-0.4821997 -0.018,-0.4821997 l -0.2202,-0.027 -6.6296,-0.7528994 c -0.01,0 -0.017,0.01 -0.016,0.018 l -0.4836,-13.8523979 c -0.022,-0.6288 -0.5463,-1.117 -1.1751,-1.095 l -2.403,0.084 -0.3002,-8.6 c -0.011,-0.3206 -0.2783,-0.5698 -0.5989,-0.5586 l -1.7607,0.062 c -0.3206,0.011 -0.5698,0.2787 -0.5586,0.5994 l 0.8258,23.6424976 c 0,-0.041 -0.036,-0.073 -0.076,-0.071 l -27.8355,0.9719997 c -0.041,0 -0.073,0.036 -0.071,0.076 l -0.1773,-5.0725973 c -0.029,-0.8409 -0.73,-1.494401 -1.5709,-1.465001 l -5.3475,0.186601 c -0.8409,0.029 -1.4944,0.73 -1.465,1.5708997 l 0.1751,5.0167976 c 0,-0.01 -0.018,-0.017 -0.018,-0.017 l -13.5934,-1.4964994 c -0.01,0 -0.017,0.01 -0.016,0.018 l -0.4837,-13.8523979 c -0.022,-0.6288 -0.5463,-1.117 -1.1751,-1.095 l -2.403,0.084 -0.3002,-8.6 c -0.011,-0.3206 -0.2783,-0.5698 -0.599,-0.5586 l -1.7606,0.062 c -0.3206,0.011 -0.5698,0.2788 -0.5586,0.5994 l 0.8258,23.6424976 c 0,-0.041 -0.036,-0.073 -0.076,-0.071 l -27.8355,0.9721 c -0.041,0 -0.073,0.036 -0.071,0.076 l -0.1773,-5.0724976 c -0.029,-0.8409 -0.73,-1.494401 -1.5709,-1.465101 l -5.34753,0.186601 c -0.84093,0.029 -1.49439,0.73 -1.46502,1.5709997 l 0.17518,5.0166979 c 0,-0.01 -0.018,-0.017 -0.018,-0.017 l -13.59349,-1.4964997 c -0.0101,0 -0.0169,0.01 -0.0164,0.018 L 232.29636,-20.31601 c -0.022,-0.6288 -0.54581,-1.117 -1.17462,-1.095 l -2.40295,0.084 -0.30024,-8.6 c -0.0111,-0.3207 -0.27829,-0.5698 -0.59894,-0.5586 l -1.76112,0.061 c -0.32065,0.011 -0.56931,0.2788 -0.55811,0.5994 l 0.82579,23.6424976 c 0,-0.041 -0.0356,-0.073 -0.0765,-0.071 l -27.83552,0.9720003 c -0.0409,0 -0.0727,0.036 -0.0713,0.076 l -0.17727,-5.0725969 c -0.0294,-0.8408 -0.73004,-1.494401 -1.57096,-1.465001 l -5.34747,0.186601 c -0.84093,0.029 -1.49439,0.73 -1.46502,1.5708997 l 0.17518,5.0167972 c 0,-0.01 -0.018,-0.017 -0.018,-0.017 l -13.59349,-1.496599 c -0.0101,0 -0.0169,0.01 -0.0164,0.018 l -0.48421,-13.8523979 c -0.022,-0.6288 -0.54581,-1.1169 -1.17462,-1.095 l -2.40295,0.084 -0.30024,-8.5994 c -0.0111,-0.3207 -0.27829,-0.5704 -0.59892,-0.5592 l -1.76114,0.061 c -0.32062,0.011 -0.56931,0.2789 -0.55811,0.5995 l 0.82579,23.6424976 c 0,-0.041 -0.0356,-0.073 -0.0765,-0.071 l -27.84239,0.9720996 c -0.0409,0 -0.0727,0.036 -0.0713,0.076 l -0.17725,-5.0724972 c -0.0294,-0.8409 -0.73004,-1.494401 -1.57096,-1.465001 l -5.3475,0.186501 c -0.84089,0.029 -1.49436,0.73 -1.46499,1.5709997 l 0.17518,5.0166975 c 0,-0.01 -0.018,-0.017 -0.018,-0.017 l -13.59347,-1.4964993 c -0.01,0 -0.0169,0.01 -0.0164,0.018 l -0.48419,-13.8523979 c -0.022,-0.6288 -0.54581,-1.117 -1.17462,-1.095 l -2.40294,0.084 -0.30025,-8.6 c -0.0111,-0.3207 -0.27829,-0.5698 -0.59894,-0.5586 l -1.76112,0.062 c -0.32065,0.011 -0.5693,0.2788 -0.55811,0.5994 l 0.82579,23.6424976 c 0,-0.041 -0.0356,-0.073 -0.0765,-0.071 l -27.83551,0.9719999 c -0.0409,0 -0.0727,0.036 -0.0713,0.076 L 85.2565,-10.2789 c -0.0294,-0.84091 -0.73003,-1.494511 -1.57096,-1.465111 l -5.34747,0.186601 c -0.84095,0.029 -1.49439,0.73 -1.46505,1.5708997 l 0.17521,5.0167973 c 0,-0.01 -0.018,-0.017 -0.018,-0.017 z"
       style="opacity:0.5;fill:#666666;fill-opacity:1;stroke:#00ff00;stroke-width:0;stroke-miterlimit:4;stroke-dasharray:none;stroke-opacity:1" />
    <path
       inkscape:tile-y0="422.39084"
       inkscape:tile-x0="1760.0462"
       sodipodi:nodetypes="ccccssccccccccccccsccccccsccccccsccccccscccccccccccccssssccccccccccccccccccccsccccccccccscccccccsccccccccscscccccccscccccccsscscccccccsccccccccscscccccccsccc"
       inkscape:connector-curvature="0"
       id="use9811"
       d="m 56.206683,62.764565 0.0878,2.5017 0.0326,0.9405 0.16121,4.6178 0,6.1836 c 0,0.1447 0.11676,0.2615 0.26149,0.2615 l 26.07387,0 0,9.1169 -2.99982,0 0,4.9253 3.00032,0 10.374581,0 c 1.75616,0.1707 3.88083,0 6.77686,0.013 l 0.193816,-10.5002 -6.389326,0 -0.19378,-3.5549 13.489126,0 32.22956,0 c 0.84347,4.1322 2.66412,8.5967 5.51389,11.666 2.91695,3.1417 5.62383,2.3584 11.60807,2.3885 l 0.1938,-10.4997 -6.38929,0 -0.19378,-3.5548 13.4891,0 32.22955,0 c 0.84347,4.1322 2.66409,8.5967 5.51387,11.666 2.91697,3.1417 5.62385,2.3588 11.60809,2.389 l 0.19378,-10.5002 -6.38929,0 -0.19378,-3.5548 13.48912,0 32.22951,0 c 0.8435,4.1322 2.6641,8.5967 5.5139,11.666 2.917,3.1417 5.6238,2.3588 11.6081,2.389 l 0.1938,-10.5002 -6.3893,0 -0.1938,-3.5548 13.4891,0 32.2296,0 c 0.8434,4.1322 2.6641,8.5967 5.5139,11.666 1.5925,1.7153 3.1265,2.2574 5.1614,2.404 l 0,0.083 3.1244,0 0,-0.1111 2.9998,0 0,-4.9251 -2.9998,0 0,-5.2855 -0.1933,0 0.01,-0.2765 -2.6851,0 -0.1938,-3.5548 13.4891,0 5.8348,0 c 0.1447,0 0.2609,-0.1168 0.2609,-0.2615 l 0,-10.6846 c 0,-0.1447 -0.1162,-0.2615 -0.2609,-0.2615 l -0.1023,0 -0.097,-2.7848 c 0,-0.069 -0.018,-0.4822 -0.018,-0.4822 l -0.2202,-0.027 -6.6296,-0.7529 c -0.01,0 -0.017,0.01 -0.016,0.018 l -0.4836,-13.8524 c -0.022,-0.6288 -0.5463,-1.117 -1.1751,-1.095 l -2.403,0.084 -0.3002,-8.6 c -0.011,-0.3206 -0.2783,-0.5698 -0.5989,-0.5586 l -1.7607,0.062 c -0.3206,0.011 -0.5698,0.2787 -0.5586,0.5994 l 0.8258,23.6425 c 0,-0.041 -0.036,-0.073 -0.076,-0.071 l -27.8355,0.972 c -0.041,0 -0.073,0.036 -0.071,0.076 l -0.1773,-5.0726 c -0.029,-0.8409 -0.73,-1.4944 -1.5709,-1.465 l -5.3475,0.1866 c -0.8409,0.029 -1.4944,0.73 -1.465,1.5709 l 0.1751,5.0168 c 0,-0.01 -0.018,-0.017 -0.018,-0.017 l -13.5934,-1.4965 c -0.01,0 -0.017,0.01 -0.016,0.018 l -0.4837,-13.8524 c -0.022,-0.6288 -0.5463,-1.117 -1.1751,-1.095 l -2.403,0.084 -0.3002,-8.6 c -0.011,-0.3206 -0.2783,-0.5698 -0.599,-0.5586 l -1.7606,0.062 c -0.3206,0.011 -0.5698,0.2788 -0.5586,0.5994 l 0.8258,23.6425 c 0,-0.041 -0.036,-0.073 -0.076,-0.071 l -27.8355,0.9721 c -0.041,0 -0.073,0.036 -0.071,0.076 l -0.1773,-5.0725 c -0.029,-0.8409 -0.73,-1.4944 -1.5709,-1.4651 l -5.34753,0.1866 c -0.84093,0.029 -1.49439,0.73 -1.46502,1.571 l 0.17518,5.0167 c 0,-0.01 -0.018,-0.017 -0.018,-0.017 l -13.59349,-1.4965 c -0.0101,0 -0.0169,0.01 -0.0164,0.018 l -0.48421,-13.8524 c -0.022,-0.6288 -0.54581,-1.117 -1.17462,-1.095 l -2.40295,0.084 -0.30024,-8.6 c -0.0111,-0.3207 -0.27829,-0.5698 -0.59894,-0.5586 l -1.76112,0.061 c -0.32065,0.011 -0.56931,0.2788 -0.55811,0.5994 l 0.82579,23.6425 c 0,-0.041 -0.0356,-0.073 -0.0765,-0.071 l -27.83552,0.972 c -0.0409,0 -0.0727,0.036 -0.0713,0.076 l -0.17727,-5.0726 c -0.0294,-0.8408 -0.73004,-1.4944 -1.57096,-1.465 l -5.34747,0.1866 c -0.84093,0.029 -1.49439,0.73 -1.46502,1.5709 l 0.17518,5.0168 c 0,-0.01 -0.018,-0.017 -0.018,-0.017 l -13.59349,-1.4966 c -0.0101,0 -0.0169,0.01 -0.0164,0.018 l -0.48421,-13.8524 c -0.022,-0.6288 -0.54581,-1.1169 -1.17462,-1.095 l -2.40295,0.084 -0.30024,-8.5994 c -0.0111,-0.3207 -0.27829,-0.5704 -0.59892,-0.5592 l -1.76114,0.061 c -0.32062,0.011 -0.56931,0.2789 -0.55811,0.5995 l 0.82579,23.6425 c 0,-0.041 -0.0356,-0.073 -0.0765,-0.071 l -27.84239,0.9721 c -0.0409,0 -0.0727,0.036 -0.0713,0.076 l -0.17725,-5.0725 c -0.0294,-0.8409 -0.73004,-1.4944 -1.57096,-1.465 l -5.3475,0.1865 c -0.84089,0.029 -1.49436,0.73 -1.46499,1.571 l 0.17518,5.0167 c 0,-0.01 -0.018,-0.017 -0.018,-0.017 l -13.59347,-1.4965 c -0.01,0 -0.0169,0.01 -0.0164,0.018 l -0.48419,-13.8524 c -0.022,-0.6288 -0.54581,-1.117 -1.17462,-1.095 l -2.40294,0.084 -0.30025,-8.6 c -0.0111,-0.3207 -0.27829,-0.5698 -0.59894,-0.5586 l -1.761126,0.062 c -0.32065,0.011 -0.56931,0.2788 -0.55812,0.5994 l 0.8258,23.6425 c 0,-0.041 -0.0356,-0.073 -0.0765,-0.071 l -27.835561,0.972 c -0.0409,0 -0.0727,0.036 -0.0713,0.076 l -0.17725,-5.07249 c -0.0294,-0.84091 -0.73003,-1.49451 -1.57096,-1.46511 l -5.34747,0.1866 c -0.84095,0.029 -1.49439,0.73 -1.46505,1.5709 l 0.17521,5.0168 c 0,-0.01 -0.018,-0.017 -0.018,-0.017 z"
       style="opacity:0.5;fill:#666666;fill-opacity:1;stroke:#00ff00;stroke-width:0;stroke-miterlimit:4;stroke-dasharray:none;stroke-opacity:1" />
    <path
       inkscape:tile-y0="422.39084"
       inkscape:tile-x0="1760.0462"
       sodipodi:nodetypes="ccccssccccccccccccsccccccsccccccsccccccscccccccccccccssssccccccccccccccccccccsccccccccccscccccccsccccccccscscccccccscccccccsscscccccccsccccccccscscccccccsccc"
       inkscape:connector-curvature="0"
       id="use9813"
       d="m 331.85532,106.20073 -0.0878,-2.50172 -0.0326,-0.9405 -0.16121,-4.617818 0,-6.183601 c 0,-0.1447 -0.11676,-0.2615 -0.26149,-0.2615 l -26.07387,0 0,-9.1169 2.99982,0 0,-4.9253 -3.00032,0 -10.37458,0 c -1.75614,-0.1707 -3.8808,0 -6.77682,-0.013 l -0.19381,10.5002 6.38929,0 0.19378,3.5549 -13.48909,0 -32.22956,0 c -0.84347,-4.1322 -2.66412,-8.5967 -5.51389,-11.666 -2.91695,-3.1417 -5.62383,-2.3584 -11.60807,-2.3885 l -0.1938,10.4997 6.38929,0 0.19378,3.5548 -13.4891,0 -32.22955,0 c -0.84347,-4.1322 -2.66409,-8.5967 -5.51387,-11.666 -2.91697,-3.1417 -5.62385,-2.3588 -11.60809,-2.389 l -0.19378,10.5002 6.38929,0 0.19378,3.5548 -13.48912,0 -32.22951,0 c -0.8435,-4.1322 -2.6641,-8.5967 -5.5139,-11.666 -2.917,-3.1417 -5.6238,-2.3588 -11.6081,-2.389 l -0.1938,10.5002 6.3893,0 0.1938,3.5548 -13.4891,0 -32.229597,0 c -0.8434,-4.1322 -2.6641,-8.5967 -5.5139,-11.666 -1.5925,-1.7153 -3.1265,-2.2574 -5.1614,-2.404 l 0,-0.083 -3.1244,0 0,0.1111 -2.9998,0 0,4.9251 2.9998,0 0,5.2855 0.1933,0 -0.01,0.2765 2.6851,0 0.1938,3.5548 -13.4891,0 -5.8348,0 c -0.1447,0 -0.2609,0.1168 -0.2609,0.2615 l 0,10.684619 c 0,0.1447 0.1162,0.2615 0.2609,0.2615 l 0.1023,0 0.097,2.78482 c 0,0.069 0.018,0.4822 0.018,0.4822 l 0.2202,0.027 6.6296,0.7529 c 0.01,0 0.017,-0.01 0.016,-0.018 l 0.4836,13.8524 c 0.022,0.6288 0.5463,1.117 1.1751,1.095 l 2.403,-0.084 0.3002,8.6 c 0.011,0.3206 0.2783,0.5698 0.5989,0.5586 l 1.7607,-0.062 c 0.3206,-0.011 0.5698,-0.2787 0.5586,-0.5994 l -0.8258,-23.6425 c 0,0.041 0.036,0.073 0.076,0.071 l 27.8355,-0.972 c 0.041,0 0.073,-0.036 0.071,-0.076 l 0.1773,5.0726 c 0.029,0.8409 0.73,1.4944 1.5709,1.465 l 5.3475,-0.1866 c 0.8409,-0.029 1.4944,-0.73 1.465,-1.5709 l -0.1751,-5.0168 c 0,0.01 0.018,0.017 0.018,0.017 l 13.593397,1.4965 c 0.01,0 0.017,-0.01 0.016,-0.018 l 0.4837,13.8524 c 0.022,0.6288 0.5463,1.117 1.1751,1.095 l 2.403,-0.084 0.3002,8.6 c 0.011,0.3206 0.2783,0.5698 0.599,0.5586 l 1.7606,-0.062 c 0.3206,-0.011 0.5698,-0.2788 0.5586,-0.5994 l -0.8258,-23.6425 c 0,0.041 0.036,0.073 0.076,0.071 l 27.8355,-0.9721 c 0.041,0 0.073,-0.036 0.071,-0.076 l 0.1773,5.0725 c 0.029,0.8409 0.73,1.4944 1.5709,1.4651 l 5.34753,-0.1866 c 0.84093,-0.029 1.49439,-0.73 1.46502,-1.571 l -0.17518,-5.0167 c 0,0.01 0.018,0.017 0.018,0.017 l 13.59349,1.4965 c 0.0101,0 0.0169,-0.01 0.0164,-0.018 l 0.48421,13.8524 c 0.022,0.6288 0.54581,1.117 1.17462,1.095 l 2.40295,-0.084 0.30024,8.6 c 0.0111,0.3207 0.27829,0.5698 0.59894,0.5586 l 1.76112,-0.061 c 0.32065,-0.011 0.56931,-0.2788 0.55811,-0.5994 l -0.82579,-23.6425 c 0,0.041 0.0356,0.073 0.0765,0.071 l 27.83552,-0.972 c 0.0409,0 0.0727,-0.036 0.0713,-0.076 l 0.17727,5.0726 c 0.0294,0.8408 0.73004,1.4944 1.57096,1.465 l 5.34747,-0.1866 c 0.84093,-0.029 1.49439,-0.73 1.46502,-1.5709 l -0.17518,-5.0168 c 0,0.01 0.018,0.017 0.018,0.017 l 13.59349,1.4966 c 0.0101,0 0.0169,-0.01 0.0164,-0.018 l 0.48421,13.8524 c 0.022,0.6288 0.54581,1.1169 1.17462,1.095 l 2.40295,-0.084 0.30024,8.5994 c 0.0111,0.3207 0.27829,0.5704 0.59892,0.5592 l 1.76114,-0.061 c 0.32062,-0.011 0.56931,-0.2789 0.55811,-0.5995 l -0.82579,-23.6425 c 0,0.041 0.0356,0.073 0.0765,0.071 l 27.84239,-0.9721 c 0.0409,0 0.0727,-0.036 0.0713,-0.076 l 0.17725,5.0725 c 0.0294,0.8409 0.73004,1.4944 1.57096,1.465 l 5.3475,-0.1865 c 0.84089,-0.029 1.49436,-0.73 1.46499,-1.571 l -0.17518,-5.0167 c 0,0.01 0.018,0.017 0.018,0.017 l 13.59347,1.4965 c 0.01,0 0.0169,-0.01 0.0164,-0.018 l 0.48419,13.8524 c 0.022,0.6288 0.54581,1.117 1.17462,1.095 l 2.40294,-0.084 0.30025,8.6 c 0.0111,0.3207 0.27829,0.5698 0.59894,0.5586 l 1.76112,-0.062 c 0.32065,-0.011 0.5693,-0.2788 0.55811,-0.5994 l -0.82579,-23.6425 c 0,0.041 0.0356,0.073 0.0765,0.071 l 27.83552,-0.972 c 0.0409,0 0.0727,-0.036 0.0713,-0.076 l 0.17725,5.07249 c 0.0294,0.84091 0.73003,1.49451 1.57096,1.46511 l 5.34747,-0.1866 c 0.84095,-0.029 1.49439,-0.73 1.46505,-1.5709 l -0.17521,-5.0168 c 0,0.01 0.018,0.017 0.018,0.017 z"
       style="opacity:0.5;fill:#666666;fill-opacity:1;stroke:#00ff00;stroke-width:0;stroke-miterlimit:4;stroke-dasharray:none;stroke-opacity:1" />
    <path
       inkscape:tile-y0="422.39084"
       inkscape:tile-x0="1760.0462"
       sodipodi:nodetypes="ccccssccccccccccccsccccccsccccccsccccccscccccccccccccssssccccccccccccccccccccsccccccccccscccccccsccccccccscscccccccscccccccsscscccccccsccccccccscscccccccsccc"
       inkscape:connector-curvature="0"
       id="use9815"
       d="m 44.473601,130.77157 0.0878,2.5017 0.0326,0.9405 0.16121,4.6178 0,6.1836 c 0,0.1447 0.11676,0.2615 0.26149,0.2615 l 26.07387,0 0,9.1169 -2.99982,0 0,4.9253 3.00032,0 10.37458,0 c 1.75614,0.1707 3.8808,0 6.77682,0.013 l 0.19381,-10.5002 -6.38929,0 -0.19378,-3.5549 13.48909,0 32.229589,0 c 0.84347,4.1322 2.66412,8.5967 5.51389,11.666 2.91695,3.1417 5.62383,2.3584 11.60807,2.3885 l 0.1938,-10.4997 -6.38929,0 -0.19378,-3.5548 13.4891,0 32.22955,0 c 0.84347,4.13219 2.66409,8.5967 5.51387,11.666 2.91697,3.14169 5.62385,2.35879 11.60809,2.38899 l 0.19378,-10.5002 -6.38929,0 -0.19378,-3.5548 13.48912,0 32.22951,1e-5 c 0.8435,4.13219 2.6641,8.5967 5.5139,11.666 2.917,3.14169 5.6238,2.35879 11.6081,2.38899 l 0.1938,-10.50019 -6.3893,0 -0.1938,-3.5548 13.4891,0 32.2296,0 c 0.8434,4.13219 2.6641,8.5967 5.5139,11.666 1.5925,1.71529 3.1265,2.25739 5.1614,2.404 l 0,0.083 3.1244,0 0,-0.11109 2.9998,0 0,-4.92511 -2.9998,0 0,-5.28549 -0.1933,0 0.01,-0.2765 -2.6851,0 -0.1938,-3.5548 13.4891,0 5.8348,0 c 0.1447,0 0.2609,-0.11681 0.2609,-0.26151 l 0,-10.68459 c 0,-0.1447 -0.1162,-0.26151 -0.2609,-0.26151 l -0.1023,0 -0.097,-2.78479 c 0,-0.069 -0.018,-0.4822 -0.018,-0.4822 l -0.2202,-0.027 -6.6296,-0.7529 c -0.01,0 -0.017,0.01 -0.016,0.018 l -0.4836,-13.8524 c -0.022,-0.6288 -0.5463,-1.117 -1.1751,-1.095 l -2.403,0.084 -0.3002,-8.6 c -0.011,-0.3206 -0.2783,-0.5698 -0.5989,-0.5586 l -1.7607,0.062 c -0.3206,0.011 -0.5698,0.2787 -0.5586,0.5994 l 0.8258,23.6425 c 0,-0.041 -0.036,-0.073 -0.076,-0.071 l -27.8355,0.97199 c -0.041,0 -0.073,0.036 -0.071,0.076 l -0.1773,-5.0726 c -0.029,-0.8409 -0.73,-1.4944 -1.5709,-1.465 l -5.3475,0.1866 c -0.8409,0.029 -1.4944,0.73 -1.465,1.5709 l 0.1751,5.0168 c 0,-0.01 -0.018,-0.017 -0.018,-0.017 l -13.5934,-1.49651 c -0.01,0 -0.017,0.01 -0.016,0.018 l -0.4837,-13.8524 c -0.022,-0.6288 -0.5463,-1.117 -1.1751,-1.095 l -2.403,0.084 -0.3002,-8.6 c -0.011,-0.3206 -0.2783,-0.5698 -0.599,-0.5586 l -1.7606,0.062 c -0.3206,0.011 -0.5698,0.2788 -0.5586,0.5994 l 0.8258,23.6425 c 0,-0.041 -0.036,-0.073 -0.076,-0.071 l -27.8355,0.97211 c -0.041,0 -0.073,0.036 -0.071,0.076 l -0.1773,-5.07249 c -0.029,-0.8409 -0.73,-1.4944 -1.5709,-1.4651 l -5.34753,0.1866 c -0.84093,0.029 -1.49439,0.73 -1.46502,1.571 l 0.17518,5.0167 c 0,-0.01 -0.018,-0.017 -0.018,-0.017 l -13.59349,-1.49651 c -0.0101,0 -0.0169,0.01 -0.0164,0.018 l -0.48421,-13.8524 c -0.022,-0.6288 -0.54581,-1.117 -1.17462,-1.095 l -2.40295,0.084 -0.30024,-8.6 c -0.0111,-0.3207 -0.27829,-0.5698 -0.59894,-0.5586 l -1.76112,0.061 c -0.32065,0.011 -0.56931,0.2788 -0.55811,0.5994 l 0.82579,23.6425 c 0,-0.041 -0.0356,-0.073 -0.0765,-0.071 l -27.83552,0.97199 c -0.0409,0 -0.0727,0.036 -0.0713,0.076 l -0.17727,-5.0726 c -0.0294,-0.8408 -0.73004,-1.4944 -1.57096,-1.465 l -5.34747,0.1866 c -0.84093,0.029 -1.49439,0.73 -1.46502,1.5709 l 0.17518,5.0168 c 0,-0.01 -0.018,-0.017 -0.018,-0.017 l -13.59349,-1.4966 c -0.0101,0 -0.0169,0.01 -0.0164,0.018 l -0.48421,-13.8524 c -0.022,-0.6288 -0.54581,-1.1169 -1.17462,-1.095 l -2.40295,0.084 -0.30024,-8.5994 c -0.0111,-0.3207 -0.27829,-0.5704 -0.59892,-0.5592 l -1.76114,0.061 c -0.32062,0.011 -0.56931,0.2789 -0.55811,0.5995 l 0.82579,23.6425 c 0,-0.041 -0.0356,-0.073 -0.0765,-0.071 l -27.84239,0.9721 c -0.0409,0 -0.0727,0.036 -0.0713,0.076 l -0.17725,-5.07249 c -0.0294,-0.8409 -0.73004,-1.4944 -1.57096,-1.465 l -5.3475,0.1865 c -0.84089,0.029 -1.49436,0.73 -1.46499,1.571 l 0.17518,5.0167 c 0,-0.01 -0.018,-0.017 -0.018,-0.017 l -13.593499,-1.4965 c -0.01,0 -0.0169,0.01 -0.0164,0.018 l -0.48419,-13.8524 c -0.022,-0.6288 -0.54581,-1.117 -1.17462,-1.095 l -2.40294,0.084 -0.30025,-8.6 c -0.0111,-0.3207 -0.27829,-0.5698 -0.59894,-0.5586 l -1.76112,0.062 c -0.32065,0.011 -0.5693,0.2788 -0.55811,0.5994 l 0.82579,23.6425 c 0,-0.041 -0.0356,-0.073 -0.0765,-0.071 l -27.83552,0.972 c -0.0409,0 -0.0727,0.036 -0.0713,0.076 l -0.17725,-5.07249 c -0.0294,-0.84091 -0.73003,-1.49451 -1.57096,-1.46511 l -5.34747,0.1866 c -0.84095,0.029 -1.49439,0.73 -1.46505,1.5709 l 0.17521,5.0168 c 0,-0.01 -0.018,-0.017 -0.018,-0.017 z"
       style="opacity:0.5;fill:#666666;fill-opacity:1;stroke:#00ff00;stroke-width:0;stroke-miterlimit:4;stroke-dasharray:none;stroke-opacity:1" />
    <path
       inkscape:tile-y0="422.39084"
       inkscape:tile-x0="1760.0462"
       sodipodi:nodetypes="ccccssccccccccccccsccccccsccccccsccccccscccccccccccccssssccccccccccccccccccccsccccccccccscccccccsccccccccscscccccccscccccccsscscccccccsccccccccscscccccccsccc"
       inkscape:connector-curvature="0"
       id="use9817"
       d="m 359.893,175.59052 -0.0878,-2.5017 -0.0326,-0.94051 -0.16121,-4.61779 0,-6.1836 c 0,-0.1447 -0.11676,-0.2615 -0.26149,-0.2615 l -26.07387,0 0,-9.1169 2.99982,0 0,-4.92531 -3.00032,0 -10.37458,0 c -1.75614,-0.17069 -3.8808,0 -6.77682,-0.013 l -0.19381,10.50021 6.38929,0 0.19378,3.5549 -13.48909,0 -32.22956,0 c -0.84347,-4.1322 -2.66412,-8.5967 -5.51389,-11.666 -2.91695,-3.1417 -5.62383,-2.3584 -11.60807,-2.3885 l -0.1938,10.4997 6.38929,0 0.19378,3.5548 -13.4891,0 -32.22955,0 c -0.84347,-4.1322 -2.66409,-8.5967 -5.51387,-11.666 -2.91697,-3.1417 -5.62385,-2.3588 -11.60809,-2.389 l -0.19378,10.5002 6.38929,0 0.19378,3.5548 -13.48912,0 -32.22951,0 c -0.8435,-4.1322 -2.6641,-8.5967 -5.5139,-11.666 -2.917,-3.1417 -5.6238,-2.3588 -11.6081,-2.389 l -0.1938,10.5002 6.3893,0 0.1938,3.5548 -13.4891,0 -32.2296,0 c -0.8434,-4.1322 -2.6641,-8.5967 -5.5139,-11.666 -1.59251,-1.7153 -3.12651,-2.2574 -5.16141,-2.404 l 0,-0.083 -3.1244,0 0,0.1111 -2.9998,0 0,4.9251 2.9998,0 0,5.2855 0.1933,0 -0.01,0.2765 2.6851,0 0.1938,3.5548 -13.4891,0 -5.8348,0 c -0.1447,0 -0.2609,0.1168 -0.2609,0.2615 l 0,10.6846 c 0,0.1447 0.1162,0.2615 0.2609,0.2615 l 0.1023,0 0.097,2.7848 c 0,0.069 0.018,0.4822 0.018,0.4822 l 0.2202,0.027 6.6296,0.7529 c 0.01,0 0.017,-0.01 0.016,-0.018 l 0.4836,13.8524 c 0.022,0.6288 0.5463,1.117 1.1751,1.095 l 2.403,-0.084 0.3002,8.6 c 0.011,0.3206 0.2783,0.5698 0.5989,0.5586 l 1.7607,-0.062 c 0.3206,-0.011 0.5698,-0.2787 0.5586,-0.5994 l -0.8258,-23.6425 c 0,0.041 0.036,0.073 0.076,0.071 l 27.83551,-0.972 c 0.041,0 0.073,-0.036 0.071,-0.076 l 0.1773,5.0726 c 0.029,0.8409 0.73,1.4944 1.5709,1.465 l 5.3475,-0.1866 c 0.8409,-0.029 1.4944,-0.73 1.465,-1.5709 l -0.1751,-5.0168 c 0,0.01 0.018,0.017 0.018,0.017 l 13.5934,1.4965 c 0.01,0 0.017,-0.01 0.016,-0.018 l 0.4837,13.8524 c 0.022,0.6288 0.5463,1.117 1.1751,1.095 l 2.403,-0.084 0.3002,8.6 c 0.011,0.3206 0.2783,0.5698 0.599,0.5586 l 1.7606,-0.062 c 0.3206,-0.011 0.5698,-0.2788 0.5586,-0.5994 l -0.8258,-23.6425 c 0,0.041 0.036,0.073 0.076,0.071 l 27.8355,-0.9721 c 0.041,0 0.073,-0.036 0.071,-0.076 l 0.1773,5.0725 c 0.029,0.8409 0.73,1.4944 1.5709,1.4651 l 5.34753,-0.1866 c 0.84093,-0.029 1.49439,-0.73 1.46502,-1.571 l -0.17518,-5.0167 c 0,0.01 0.018,0.017 0.018,0.017 l 13.59349,1.4965 c 0.0101,0 0.0169,-0.01 0.0164,-0.018 l 0.48421,13.8524 c 0.022,0.6288 0.54581,1.117 1.17462,1.095 l 2.40295,-0.084 0.30024,8.6 c 0.0111,0.3207 0.27829,0.5698 0.59894,0.5586 l 1.76112,-0.061 c 0.32065,-0.011 0.56931,-0.2788 0.55811,-0.5994 l -0.82579,-23.6425 c 0,0.041 0.0356,0.073 0.0765,0.071 l 27.83552,-0.972 c 0.0409,0 0.0727,-0.036 0.0713,-0.076 l 0.17727,5.0726 c 0.0294,0.8408 0.73004,1.4944 1.57096,1.465 l 5.34747,-0.1866 c 0.84093,-0.029 1.49439,-0.73 1.46502,-1.5709 l -0.17518,-5.0168 c 0,0.01 0.018,0.017 0.018,0.017 l 13.59349,1.4966 c 0.0101,0 0.0169,-0.01 0.0164,-0.018 l 0.48421,13.85239 c 0.022,0.62881 0.54581,1.11691 1.17462,1.09501 l 2.40295,-0.084 0.30024,8.5994 c 0.0111,0.3207 0.27829,0.57039 0.59892,0.55919 l 1.76114,-0.061 c 0.32062,-0.011 0.56931,-0.27891 0.55811,-0.5995 l -0.82579,-23.64251 c 0,0.041 0.0356,0.073 0.0765,0.071 l 27.84239,-0.97209 c 0.0409,0 0.0727,-0.036 0.0713,-0.076 l 0.17725,5.07251 c 0.0294,0.8409 0.73004,1.49439 1.57096,1.465 l 5.3475,-0.18651 c 0.84089,-0.029 1.49436,-0.72999 1.46499,-1.57099 l -0.17518,-5.0167 c 0,0.01 0.018,0.017 0.018,0.017 l 13.59347,1.4965 c 0.01,0 0.0169,-0.01 0.0164,-0.018 l 0.48419,13.85239 c 0.022,0.62881 0.54581,1.11701 1.17462,1.09501 l 2.40294,-0.084 0.30025,8.6 c 0.0111,0.32069 0.27829,0.56979 0.59894,0.55859 l 1.76112,-0.062 c 0.32065,-0.011 0.5693,-0.27881 0.55811,-0.5994 l -0.82579,-23.64251 c 0,0.041 0.0356,0.073 0.0765,0.071 l 27.83552,-0.972 c 0.0409,0 0.0727,-0.036 0.0713,-0.076 l 0.17725,5.0725 c 0.0294,0.8409 0.73003,1.4945 1.57096,1.46511 l 5.34747,-0.1866 c 0.84095,-0.029 1.49439,-0.73001 1.46505,-1.57091 l -0.17521,-5.01679 c 0,0.01 0.018,0.017 0.018,0.017 z"
       style="opacity:0.5;fill:#666666;fill-opacity:1;stroke:#00ff00;stroke-width:0;stroke-miterlimit:4;stroke-dasharray:none;stroke-opacity:1" />
    <path
       inkscape:tile-y0="422.39084"
       inkscape:tile-x0="1760.0462"
       sodipodi:nodetypes="ccccssccccccccccccsccccccsccccccsccccccscccccccccccccssssccccccccccccccccccccsccccccccccscccccccsccccccccscscccccccscccccccsscscccccccsccccccccscscccccccsccc"
       inkscape:connector-curvature="0"
       id="use9819"
       d="m 13.68921,198.87971 0.0878,2.5017 0.0326,0.9405 0.16121,4.6178 0,6.1836 c 0,0.1447 0.11676,0.2615 0.26149,0.2615 l 26.07387,0 0,9.1169 -2.99982,0 0,4.9253 3.00032,0 10.37458,0 c 1.75614,0.1707 3.8808,0 6.77682,0.013 l 0.19381,-10.5002 -6.38929,0 -0.19378,-3.5549 13.48909,0 32.22956,0 c 0.84347,4.1322 2.66412,8.5967 5.51389,11.666 2.91695,3.1417 5.62383,2.3584 11.60807,2.3885 l 0.1938,-10.4997 -6.38929,0 -0.19378,-3.5548 13.4891,0 32.22955,0 c 0.84347,4.1322 2.66409,8.5967 5.51387,11.666 2.91697,3.1417 5.62385,2.3588 11.60809,2.389 l 0.19378,-10.5002 -6.38929,0 -0.19378,-3.5548 13.48912,0 32.22951,0 c 0.8435,4.1322 2.6641,8.5967 5.5139,11.666 2.917,3.1417 5.6238,2.3588 11.6081,2.389 l 0.1938,-10.5002 -6.3893,0 -0.1938,-3.5548 13.4891,0 32.2296,0 c 0.8434,4.1322 2.6641,8.5967 5.5139,11.666 1.5925,1.7153 3.1265,2.2574 5.1614,2.404 l 0,0.083 3.1244,0 0,-0.1111 2.9998,0 0,-4.9251 -2.9998,0 0,-5.2855 -0.1933,0 0.01,-0.2765 -2.6851,0 -0.1938,-3.5548 13.4891,0 5.8348,0 c 0.1447,0 0.2609,-0.1168 0.2609,-0.2615 l 0,-10.6846 c 0,-0.1447 -0.1162,-0.2615 -0.2609,-0.2615 l -0.1023,0 -0.097,-2.7848 c 0,-0.069 -0.018,-0.4822 -0.018,-0.4822 l -0.2202,-0.027 -6.6296,-0.7529 c -0.01,0 -0.017,0.01 -0.016,0.018 l -0.4836,-13.8524 c -0.022,-0.6288 -0.5463,-1.117 -1.1751,-1.095 l -2.403,0.084 -0.3002,-8.6 c -0.011,-0.3206 -0.2783,-0.5698 -0.5989,-0.5586 l -1.7607,0.062 c -0.3206,0.011 -0.5698,0.2787 -0.5586,0.5994 l 0.8258,23.6425 c 0,-0.041 -0.036,-0.073 -0.076,-0.071 l -27.8355,0.972 c -0.041,0 -0.073,0.036 -0.071,0.076 l -0.1773,-5.0726 c -0.029,-0.8409 -0.73,-1.4944 -1.5709,-1.465 l -5.3475,0.1866 c -0.8409,0.029 -1.4944,0.73 -1.465,1.5709 l 0.1751,5.0168 c 0,-0.01 -0.018,-0.017 -0.018,-0.017 l -13.5934,-1.4965 c -0.01,0 -0.017,0.01 -0.016,0.018 l -0.4837,-13.8524 c -0.022,-0.6288 -0.5463,-1.117 -1.1751,-1.095 l -2.403,0.084 -0.3002,-8.6 c -0.011,-0.3206 -0.2783,-0.5698 -0.599,-0.5586 l -1.7606,0.062 c -0.3206,0.011 -0.5698,0.2788 -0.5586,0.5994 l 0.8258,23.6425 c 0,-0.041 -0.036,-0.073 -0.076,-0.071 l -27.8355,0.9721 c -0.041,0 -0.073,0.036 -0.071,0.076 l -0.1773,-5.0725 c -0.029,-0.8409 -0.73,-1.4944 -1.5709,-1.4651 l -5.34753,0.1866 c -0.84093,0.029 -1.49439,0.73 -1.46502,1.571 l 0.17518,5.0167 c 0,-0.01 -0.018,-0.017 -0.018,-0.017 l -13.59349,-1.4965 c -0.0101,0 -0.0169,0.01 -0.0164,0.018 l -0.48421,-13.8524 c -0.022,-0.6288 -0.54581,-1.117 -1.17462,-1.095 l -2.40295,0.084 -0.30024,-8.6 c -0.0111,-0.3207 -0.27829,-0.5698 -0.59894,-0.5586 l -1.76112,0.061 c -0.32065,0.011 -0.56931,0.2788 -0.55811,0.5994 l 0.82579,23.6425 c 0,-0.041 -0.0356,-0.073 -0.0765,-0.071 l -27.83552,0.972 c -0.0409,0 -0.0727,0.036 -0.0713,0.076 l -0.17727,-5.0726 c -0.0294,-0.8408 -0.73004,-1.4944 -1.57096,-1.465 l -5.34747,0.1866 c -0.84093,0.029 -1.49439,0.73 -1.46502,1.5709 l 0.17518,5.0168 c 0,-0.01 -0.018,-0.017 -0.018,-0.017 l -13.59349,-1.4966 c -0.0101,0 -0.0169,0.01 -0.0164,0.018 l -0.48421,-13.8524 c -0.022,-0.6288 -0.54581,-1.1169 -1.17462,-1.095 l -2.40295,0.084 -0.30024,-8.5994 c -0.0111,-0.3207 -0.27829,-0.5704 -0.59892,-0.5592 l -1.76114,0.061 c -0.32062,0.011 -0.56931,0.2789 -0.55811,0.5995 l 0.82579,23.6425 c 0,-0.041 -0.0356,-0.073 -0.0765,-0.071 l -27.84239,0.9721 c -0.0409,0 -0.0727,0.036 -0.0713,0.076 l -0.17725,-5.0725 c -0.0294,-0.8409 -0.73004,-1.4944 -1.57096,-1.465 l -5.3475,0.1865 c -0.84089,0.029 -1.49436,0.73 -1.46499,1.571 l 0.17518,5.0167 c 0,-0.01 -0.018,-0.017 -0.018,-0.017 l -13.59347,-1.4965 c -0.01,0 -0.0169,0.01 -0.0164,0.018 l -0.48419,-13.8524 c -0.022,-0.6288 -0.54581,-1.117 -1.17462,-1.095 l -2.40294,0.084 -0.30025,-8.6 c -0.0111,-0.3207 -0.27829,-0.5698 -0.59894,-0.5586 l -1.76112,0.062 c -0.32065,0.011 -0.5693,0.2788 -0.55811,0.5994 l 0.82579,23.6425 c 0,-0.041 -0.0356,-0.073 -0.0765,-0.071 l -27.83552,0.972 c -0.0409,0 -0.0727,0.036 -0.0713,0.076 l -0.17725,-5.07249 c -0.0294,-0.84091 -0.73003,-1.49451 -1.57096,-1.46511 l -5.34747,0.1866 c -0.84095,0.029 -1.49439,0.73 -1.46505,1.5709 l 0.17521,5.0168 c 0,-0.01 -0.018,-0.017 -0.018,-0.017 z"
       style="opacity:0.5;fill:#666666;fill-opacity:1;stroke:#00ff00;stroke-width:0;stroke-miterlimit:4;stroke-dasharray:none;stroke-opacity:1" />
    <path
       inkscape:tile-y0="422.39084"
       inkscape:tile-x0="1760.0462"
       sodipodi:nodetypes="ccccssccccccccccccsccccccsccccccsccccccscccccccccccccssssccccccccccccccccccccsccccccccccscccccccsccccccccscscccccccscccccccsscscccccccsccccccccscscccccccsccc"
       inkscape:connector-curvature="0"
       id="use9821"
       d="m 289.63132,242.93461 -0.0878,-2.5017 -0.0326,-0.9405 -0.16121,-4.6178 0,-6.1836 c 0,-0.1447 -0.11676,-0.2615 -0.26149,-0.2615 l -26.07387,0 0,-9.1169 2.99982,0 0,-4.9253 -3.00032,0 -10.37458,0 c -1.75614,-0.1707 -3.8808,0 -6.77682,-0.013 l -0.19381,10.5002 6.38929,0 0.19378,3.5549 -13.48909,0 -32.22956,0 c -0.84347,-4.1322 -2.66412,-8.5967 -5.51389,-11.666 -2.91695,-3.1417 -5.62383,-2.3584 -11.60807,-2.3885 l -0.1938,10.4997 6.38929,0 0.19378,3.5548 -13.4891,0 -32.22955,0 c -0.84347,-4.1322 -2.66409,-8.5967 -5.51387,-11.666 -2.91697,-3.1417 -5.62385,-2.3588 -11.60809,-2.389 l -0.19378,10.5002 6.38929,0 0.19378,3.5548 -13.48912,0 -32.22951,1e-5 c -0.8435,-4.13221 -2.6641,-8.5967 -5.5139,-11.666 -2.917,-3.14171 -5.6238,-2.35881 -11.6081,-2.38901 l -0.1938,10.50021 6.3893,0 0.1938,3.5548 -13.4891,0 -32.2296,0 c -0.8434,-4.13221 -2.6641,-8.5967 -5.5139,-11.666 -1.5925,-1.71531 -3.1265,-2.25741 -5.1614,-2.404 l 0,-0.083 -3.1244,0 0,0.11111 -2.9998,0 0,4.92509 2.9998,0 0,5.28551 0.1933,0 -0.01,0.2765 2.6851,0 0.1938,3.5548 -13.4891,0 -5.8348,0 c -0.1447,0 -0.2609,0.11679 -0.2609,0.26149 l 0,10.68461 c 0,0.1447 0.1162,0.26149 0.2609,0.26149 l 0.1023,0 0.097,2.7848 c 0,0.069 0.018,0.4822 0.018,0.4822 l 0.2202,0.027 6.6296,0.7529 c 0.01,0 0.017,-0.01 0.016,-0.018 l 0.4836,13.8524 c 0.022,0.6288 0.5463,1.117 1.1751,1.095 l 2.403,-0.084 0.3002,8.6 c 0.011,0.3206 0.2783,0.56981 0.5989,0.5586 l 1.7607,-0.062 c 0.3206,-0.011 0.5698,-0.27869 0.5586,-0.5994 l -0.8258,-23.6425 c 0,0.041 0.036,0.073 0.076,0.071 l 27.8355,-0.972 c 0.041,0 0.073,-0.036 0.071,-0.076 l 0.1773,5.0726 c 0.029,0.8409 0.73,1.4944 1.5709,1.465 l 5.3475,-0.1866 c 0.8409,-0.029 1.4944,-0.73 1.465,-1.5709 l -0.1751,-5.0168 c 0,0.01 0.018,0.017 0.018,0.017 l 13.5934,1.4965 c 0.01,0 0.017,-0.01 0.016,-0.018 l 0.4837,13.8524 c 0.022,0.6288 0.5463,1.117 1.1751,1.095 l 2.403,-0.084 0.3002,8.6 c 0.011,0.3206 0.2783,0.5698 0.599,0.5586 l 1.7606,-0.062 c 0.3206,-0.011 0.5698,-0.2788 0.5586,-0.5994 l -0.8258,-23.6425 c 0,0.041 0.036,0.073 0.076,0.071 l 27.8355,-0.9721 c 0.041,0 0.073,-0.036 0.071,-0.076 l 0.1773,5.0725 c 0.029,0.8409 0.73,1.4944 1.5709,1.4651 l 5.34753,-0.1866 c 0.84093,-0.029 1.49439,-0.73 1.46502,-1.571 l -0.17518,-5.0167 c 0,0.01 0.018,0.017 0.018,0.017 l 13.59349,1.4965 c 0.0101,0 0.0169,-0.01 0.0164,-0.018 l 0.48421,13.8524 c 0.022,0.6288 0.54581,1.117 1.17462,1.095 l 2.40295,-0.084 0.30024,8.6 c 0.0111,0.3207 0.27829,0.5698 0.59894,0.5586 l 1.76112,-0.061 c 0.32065,-0.011 0.56931,-0.2788 0.55811,-0.5994 l -0.82579,-23.6425 c 0,0.041 0.0356,0.073 0.0765,0.071 l 27.83552,-0.972 c 0.0409,0 0.0727,-0.036 0.0713,-0.076 l 0.17727,5.0726 c 0.0294,0.8408 0.73004,1.4944 1.57096,1.465 l 5.34747,-0.1866 c 0.84093,-0.029 1.49439,-0.73 1.46502,-1.5709 l -0.17518,-5.0168 c 0,0.01 0.018,0.017 0.018,0.017 l 13.59349,1.4966 c 0.0101,0 0.0169,-0.01 0.0164,-0.018 l 0.48421,13.8524 c 0.022,0.6288 0.54581,1.1169 1.17462,1.095 l 2.40295,-0.084 0.30024,8.5994 c 0.0111,0.3207 0.27829,0.5704 0.59892,0.5592 l 1.76114,-0.061 c 0.32062,-0.011 0.56931,-0.2789 0.55811,-0.5995 l -0.82579,-23.6425 c 0,0.041 0.0356,0.073 0.0765,0.071 l 27.84239,-0.9721 c 0.0409,0 0.0727,-0.036 0.0713,-0.076 l 0.17725,5.0725 c 0.0294,0.8409 0.73004,1.4944 1.57096,1.465 l 5.3475,-0.1865 c 0.84089,-0.029 1.49436,-0.73 1.46499,-1.571 l -0.17518,-5.0167 c 0,0.01 0.018,0.017 0.018,0.017 l 13.59347,1.4965 c 0.01,0 0.0169,-0.01 0.0164,-0.018 l 0.48419,13.8524 c 0.022,0.6288 0.54581,1.117 1.17462,1.095 l 2.40294,-0.084 0.30025,8.6 c 0.0111,0.3207 0.27829,0.5698 0.59894,0.5586 l 1.76112,-0.062 c 0.32065,-0.011 0.5693,-0.2788 0.55811,-0.5994 l -0.82579,-23.6425 c 0,0.041 0.0356,0.073 0.0765,0.071 l 27.83552,-0.972 c 0.0409,0 0.0727,-0.036 0.0713,-0.076 l 0.17725,5.07249 c 0.0294,0.84091 0.73003,1.49451 1.57096,1.46511 l 5.34747,-0.1866 c 0.84095,-0.029 1.49439,-0.73 1.46505,-1.5709 l -0.17521,-5.0168 c 0,0.01 0.018,0.017 0.018,0.017 z"
       style="opacity:0.5;fill:#666666;fill-opacity:1;stroke:#00ff00;stroke-width:0;stroke-miterlimit:4;stroke-dasharray:none;stroke-opacity:1" />
    <path
       inkscape:tile-y0="422.39084"
       inkscape:tile-x0="1760.0462"
       sodipodi:nodetypes="ccccssccccccccccccsccccccsccccccsccccccscccccccccccccssssccccccccccccccccccccsccccccccccscccccccsccccccccscscccccccscccccccsscscccccccsccccccccscscccccccsccc"
       inkscape:connector-curvature="0"
       id="use9823"
       d="m 2.396751,267.78123 0.0878,2.5017 0.0326,0.9405 0.16121,4.6178 0,6.1836 c 0,0.1447 0.11676,0.2615 0.26149,0.2615 l 26.07387,0 0,9.1169 -2.99982,0 0,4.9253 3.00032,0 10.37458,0 c 1.75614,0.1707 3.8808,0 6.77682,0.013 l 0.19381,-10.5002 -6.38929,0 -0.19378,-3.5549 13.48909,0 32.22956,0 c 0.84347,4.1322 2.66412,8.5967 5.51389,11.666 2.91695,3.1417 5.62383,2.3584 11.608069,2.3885 l 0.1938,-10.4997 -6.389289,0 -0.19378,-3.5548 13.489099,0 32.22955,0 c 0.84347,4.1322 2.66409,8.5967 5.51387,11.666 2.91697,3.1417 5.62385,2.3588 11.60809,2.389 l 0.19378,-10.5002 -6.38929,0 -0.19378,-3.5548 13.48912,0 32.22951,0 c 0.8435,4.1322 2.6641,8.5967 5.5139,11.666 2.917,3.1417 5.6238,2.3588 11.6081,2.389 l 0.1938,-10.5002 -6.3893,0 -0.1938,-3.5548 13.4891,0 32.2296,0 c 0.8434,4.1322 2.6641,8.5967 5.5139,11.666 1.5925,1.7153 3.1265,2.2574 5.1614,2.404 l 0,0.083 3.1244,0 0,-0.1111 2.9998,0 0,-4.9251 -2.9998,0 0,-5.2855 -0.1933,0 0.01,-0.2765 -2.6851,0 -0.1938,-3.5548 13.4891,0 5.8348,0 c 0.1447,0 0.2609,-0.1168 0.2609,-0.2615 l 0,-10.6846 c 0,-0.1447 -0.1162,-0.2615 -0.2609,-0.2615 l -0.1023,0 -0.097,-2.7848 c 0,-0.069 -0.018,-0.4822 -0.018,-0.4822 l -0.2202,-0.027 -6.6296,-0.7529 c -0.01,0 -0.017,0.01 -0.016,0.018 l -0.4836,-13.8524 c -0.022,-0.6288 -0.5463,-1.117 -1.1751,-1.095 l -2.403,0.084 -0.3002,-8.6 c -0.011,-0.3206 -0.2783,-0.5698 -0.5989,-0.5586 l -1.7607,0.062 c -0.3206,0.011 -0.5698,0.2787 -0.5586,0.5994 l 0.8258,23.6425 c 0,-0.041 -0.036,-0.073 -0.076,-0.071 l -27.8355,0.972 c -0.041,0 -0.073,0.036 -0.071,0.076 l -0.1773,-5.0726 c -0.029,-0.8409 -0.73,-1.4944 -1.5709,-1.465 l -5.3475,0.1866 c -0.8409,0.029 -1.4944,0.73 -1.465,1.5709 l 0.1751,5.0168 c 0,-0.01 -0.018,-0.017 -0.018,-0.017 l -13.5934,-1.4965 c -0.01,0 -0.017,0.01 -0.016,0.018 l -0.4837,-13.8524 c -0.022,-0.6288 -0.5463,-1.117 -1.1751,-1.095 l -2.403,0.084 -0.3002,-8.6 c -0.011,-0.3206 -0.2783,-0.5698 -0.599,-0.5586 l -1.7606,0.062 c -0.3206,0.011 -0.5698,0.2788 -0.5586,0.5994 l 0.8258,23.6425 c 0,-0.041 -0.036,-0.073 -0.076,-0.071 l -27.8355,0.9721 c -0.041,0 -0.073,0.036 -0.071,0.076 l -0.1773,-5.0725 c -0.029,-0.8409 -0.73,-1.4944 -1.5709,-1.4651 l -5.34753,0.1866 c -0.84093,0.029 -1.49439,0.73 -1.46502,1.571 l 0.17518,5.0167 c 0,-0.01 -0.018,-0.017 -0.018,-0.017 l -13.59349,-1.4965 c -0.0101,0 -0.0169,0.01 -0.0164,0.018 l -0.48421,-13.8524 c -0.022,-0.6288 -0.54581,-1.117 -1.17462,-1.095 l -2.40295,0.084 -0.30024,-8.6 c -0.0111,-0.3207 -0.27829,-0.5698 -0.59894,-0.5586 l -1.76112,0.061 c -0.32065,0.011 -0.56931,0.2788 -0.55811,0.5994 l 0.82579,23.6425 c 0,-0.041 -0.0356,-0.073 -0.0765,-0.071 l -27.83552,0.972 c -0.0409,0 -0.0727,0.036 -0.0713,0.076 l -0.17727,-5.0726 c -0.0294,-0.8408 -0.73004,-1.4944 -1.57096,-1.465 l -5.34747,0.1866 c -0.84093,0.029 -1.49439,0.73 -1.46502,1.5709 l 0.17518,5.0168 c 0,-0.01 -0.018,-0.017 -0.018,-0.017 l -13.59349,-1.4966 c -0.0101,0 -0.0169,0.01 -0.0164,0.018 l -0.48421,-13.8524 c -0.022,-0.6288 -0.54581,-1.1169 -1.17462,-1.095 l -2.40295,0.084 -0.30024,-8.5994 c -0.0111,-0.3207 -0.27829,-0.5704 -0.59892,-0.5592 l -1.76114,0.061 c -0.32062,0.011 -0.56931,0.2789 -0.55811,0.5995 l 0.82579,23.6425 c 0,-0.041 -0.0356,-0.073 -0.0765,-0.071 l -27.842389,0.9721 c -0.0409,0 -0.0727,0.036 -0.0713,0.076 l -0.17725,-5.0725 c -0.0294,-0.8409 -0.73004,-1.4944 -1.57096,-1.465 l -5.3475,0.1865 c -0.84089,0.029 -1.49436,0.73 -1.46499,1.571 l 0.17518,5.0167 c 0,-0.01 -0.018,-0.017 -0.018,-0.017 l -13.59347,-1.4965 c -0.01,0 -0.0169,0.01 -0.0164,0.018 l -0.48419,-13.8524 c -0.022,-0.6288 -0.54581,-1.117 -1.17462,-1.095 l -2.40294,0.084 -0.30025,-8.6 c -0.0111,-0.3207 -0.27829,-0.5698 -0.59894,-0.5586 l -1.76112,0.062 c -0.32065,0.011 -0.5693,0.2788 -0.55811,0.5994 l 0.82579,23.6425 c 0,-0.041 -0.0356,-0.073 -0.0765,-0.071 l -27.83552,0.972 c -0.0409,0 -0.0727,0.036 -0.0713,0.076 l -0.17725,-5.07249 c -0.0294,-0.84091 -0.73003,-1.49451 -1.57096,-1.46511 l -5.34747,0.1866 c -0.84095,0.029 -1.49439,0.73 -1.46505,1.5709 l 0.17521,5.0168 c 0,-0.01 -0.018,-0.017 -0.018,-0.017 z"
       style="opacity:0.5;fill:#666666;fill-opacity:1;stroke:#00ff00;stroke-width:0;stroke-miterlimit:4;stroke-dasharray:none;stroke-opacity:1" />
    <path
       inkscape:tile-y0="422.39084"
       inkscape:tile-x0="1760.0462"
       sodipodi:nodetypes="ccccssccccccccccccsccccccsccccccsccccccscccccccccccccssssccccccccccccccccccccsccccccccccscccccccsccccccccscscccccccscccccccsscscccccccsccccccccscscccccccsccc"
       inkscape:connector-curvature="0"
       id="use9825"
       d="m 330.56209,37.733235 -0.0878,-2.5017 -0.0326,-0.9405 -0.16121,-4.6178 0,-6.1836 c 0,-0.1447 -0.11676,-0.2615 -0.26149,-0.2615 l -26.07387,0 0,-9.116902 2.99982,0 0,-4.9253014 -3.00032,0 -10.37458,0 c -1.75614,-0.1707 -3.8808,0 -6.77682,-0.013 l -0.19381,10.5002034 6.38929,0 0.19378,3.5549 -13.48908,0 -32.22957,0 c -0.84347,-4.1322 -2.66412,-8.596701 -5.51389,-11.666003 -2.91695,-3.1417011 -5.62383,-2.3584004 -11.60807,-2.3885004 l -0.1938,10.4997034 6.38929,0 0.19378,3.5548 -13.4891,0 -32.22955,0 c -0.84347,-4.1322 -2.66409,-8.596701 -5.51387,-11.666003 -2.91697,-3.1417011 -5.62385,-2.3588004 -11.60809,-2.3890004 l -0.19378,10.5002034 6.38929,0 0.19378,3.5548 -13.48912,0 -32.22951,0 c -0.8435,-4.1322 -2.6641,-8.596701 -5.5139,-11.666003 -2.917,-3.1417011 -5.6238,-2.3588004 -11.6081,-2.3890004 l -0.1938,10.5002034 6.3893,0 0.1938,3.5548 -13.4891,0 -32.229604,0 c -0.8434,-4.1322 -2.6641,-8.596701 -5.5139,-11.666003 -1.5925,-1.7153007 -3.1265,-2.2574004 -5.1614,-2.4040004 l 0,-0.083 -3.1244,0 0,0.1111 -2.9998,0 0,4.9251014 2.9998,0 0,5.285502 0.1933,0 -0.01,0.2765 2.6851,0 0.1938,3.5548 -13.4891,0 -5.8348,0 c -0.1447,0 -0.2609,0.1168 -0.2609,0.2615 l 0,10.6846 c 0,0.1447 0.1162,0.2615 0.2609,0.2615 l 0.1023,0 0.097,2.7848 c 0,0.069 0.018,0.4822 0.018,0.4822 l 0.2202,0.027 6.6296,0.7529 c 0.01,0 0.017,-0.01 0.016,-0.018 l 0.4836,13.8524 c 0.022,0.6288 0.5463,1.117 1.1751,1.095 l 2.403,-0.084 0.3002,8.6 c 0.011,0.3206 0.2783,0.5698 0.5989,0.5586 l 1.7607,-0.062 c 0.3206,-0.011 0.5698,-0.2787 0.5586,-0.5994 l -0.8258,-23.6425 c 0,0.041 0.036,0.073 0.076,0.071 l 27.8355,-0.972 c 0.041,0 0.073,-0.036 0.071,-0.076 l 0.1773,5.0726 c 0.029,0.8409 0.73,1.4944 1.5709,1.465 l 5.3475,-0.1866 c 0.8409,-0.029 1.4944,-0.73 1.465,-1.5709 l -0.1751,-5.0168 c 0,0.01 0.018,0.017 0.018,0.017 l 13.593404,1.4965 c 0.01,0 0.017,-0.01 0.016,-0.018 l 0.4837,13.8524 c 0.022,0.6288 0.5463,1.117 1.1751,1.095 l 2.403,-0.084 0.3002,8.6 c 0.011,0.3206 0.2783,0.5698 0.599,0.5586 l 1.7606,-0.062 c 0.3206,-0.011 0.5698,-0.2788 0.5586,-0.5994 l -0.8258,-23.6425 c 0,0.041 0.036,0.073 0.076,0.071 l 27.8355,-0.9721 c 0.041,0 0.073,-0.036 0.071,-0.076 l 0.1773,5.0725 c 0.029,0.8409 0.73,1.4944 1.5709,1.4651 l 5.34753,-0.1866 c 0.84093,-0.029 1.49439,-0.73 1.46502,-1.571 l -0.17518,-5.0167 c 0,0.01 0.018,0.017 0.018,0.017 l 13.59349,1.4965 c 0.0101,0 0.0169,-0.01 0.0164,-0.018 l 0.48421,13.8524 c 0.022,0.6288 0.54581,1.117 1.17462,1.095 l 2.40295,-0.084 0.30024,8.6 c 0.0111,0.3207 0.27829,0.5698 0.59894,0.5586 l 1.76112,-0.061 c 0.32065,-0.011 0.56931,-0.2788 0.55811,-0.5994 l -0.82579,-23.6425 c 0,0.041 0.0356,0.073 0.0765,0.071 l 27.83552,-0.972 c 0.0409,0 0.0727,-0.036 0.0713,-0.076 l 0.17727,5.0726 c 0.0294,0.8408 0.73004,1.4944 1.57096,1.465 l 5.34747,-0.1866 c 0.84093,-0.029 1.49439,-0.73 1.46502,-1.5709 l -0.17518,-5.0168 c 0,0.01 0.018,0.017 0.018,0.017 l 13.59349,1.4966 c 0.0101,0 0.0169,-0.01 0.0164,-0.018 l 0.48421,13.8524 c 0.022,0.6288 0.54581,1.1169 1.17462,1.095 l 2.40295,-0.084 0.30024,8.5994 c 0.0111,0.3207 0.27829,0.5704 0.59892,0.5592 l 1.76114,-0.061 c 0.32062,-0.011 0.56931,-0.2789 0.55811,-0.5995 l -0.82579,-23.6425 c 0,0.041 0.0356,0.073 0.0765,0.071 l 27.8424,-0.9721 c 0.0409,0 0.0727,-0.036 0.0713,-0.076 l 0.17725,5.0725 c 0.0294,0.8409 0.73004,1.4944 1.57096,1.465 l 5.3475,-0.1865 c 0.84089,-0.029 1.49436,-0.73 1.46499,-1.571 l -0.17518,-5.0167 c 0,0.01 0.018,0.017 0.018,0.017 l 13.59347,1.4965 c 0.01,0 0.0169,-0.01 0.0164,-0.018 l 0.48419,13.8524 c 0.022,0.6288 0.54581,1.117 1.17462,1.095 l 2.40293,-0.084 0.30025,8.6 c 0.0111,0.3207 0.27829,0.5698 0.59894,0.5586 l 1.76112,-0.062 c 0.32065,-0.011 0.5693,-0.2788 0.55811,-0.5994 l -0.82579,-23.6425 c 0,0.041 0.0356,0.073 0.0765,0.071 l 27.83552,-0.972 c 0.0409,0 0.0727,-0.036 0.0713,-0.076 l 0.17725,5.07249 c 0.0294,0.84091 0.73003,1.49451 1.57096,1.46511 l 5.34747,-0.1866 c 0.84095,-0.029 1.49439,-0.73 1.46505,-1.5709 l -0.17521,-5.0168 c 0,0.01 0.018,0.017 0.018,0.017 z"
       style="opacity:0.5;fill:#666666;fill-opacity:1;stroke:#00ff00;stroke-width:0;stroke-miterlimit:4;stroke-dasharray:none;stroke-opacity:1" />
    <path
       inkscape:tile-y0="422.39084"
       inkscape:tile-x0="1760.0462"
       sodipodi:nodetypes="ccccssccccccccccccsccccccsccccccsccccccscccccccccccccssssccccccccccccccccccccsccccccccccscccccccsccccccccscscccccccscccccccsscscccccccsccccccccscscccccccsccc"
       inkscape:connector-curvature="0"
       id="use9827"
       d="m 64.820813,-75.589753 0.0878,2.5017 0.0326,0.9405 0.16121,4.6178 0,6.1836 c 0,0.1447 0.11676,0.2615 0.26149,0.2615 l 26.073873,0 0,9.1169 -2.99982,0 0,4.9253 3.00032,0 10.374584,0 c 1.75614,0.1707 3.8808,0 6.77682,0.013 l 0.19381,-10.5002 -6.38929,0 -0.19378,-3.5549 13.48909,0 32.22956,0 c 0.84347,4.1322 2.66412,8.5967 5.51389,11.666 2.91695,3.1417 5.62383,2.3584 11.60807,2.3885 l 0.1938,-10.4997 -6.38929,0 -0.19378,-3.5548 13.4891,0 32.22955,0 c 0.84347,4.1322 2.66409,8.5967 5.51387,11.666 2.91697,3.1417 5.62385,2.3588 11.60809,2.389 l 0.19378,-10.5002 -6.38929,0 -0.19378,-3.5548 13.48912,0 32.22951,0 c 0.8435,4.1322 2.6641,8.5967 5.5139,11.666 2.917,3.1417 5.6238,2.3588 11.60809,2.389 l 0.1938,-10.5002 -6.38929,0 -0.1938,-3.5548 13.48909,0 32.22961,0 c 0.8434,4.1322 2.6641,8.5967 5.5139,11.666 1.5925,1.7153 3.1265,2.2574 5.1614,2.404 l 0,0.083 3.1244,0 0,-0.1111 2.9998,0 0,-4.9251 -2.9998,0 0,-5.2855 -0.1933,0 0.01,-0.2765 -2.6851,0 -0.1938,-3.5548 13.4891,0 5.8348,0 c 0.1447,0 0.2609,-0.1168 0.2609,-0.2615 l 0,-10.6846 c 0,-0.1447 -0.1162,-0.2615 -0.2609,-0.2615 l -0.1023,0 -0.097,-2.7848 c 0,-0.069 -0.018,-0.4822 -0.018,-0.4822 l -0.2202,-0.027 -6.6296,-0.7529 c -0.01,0 -0.017,0.01 -0.016,0.018 l -0.4836,-13.852404 c -0.022,-0.628797 -0.5463,-1.116994 -1.1751,-1.094994 l -2.403,0.084 -0.3002,-8.599952 c -0.011,-0.320597 -0.2783,-0.569797 -0.5989,-0.558597 l -1.7607,0.062 c -0.3206,0.011 -0.5698,0.2787 -0.5586,0.599397 l 0.8258,23.64245 c 0,-0.041 -0.036,-0.073 -0.076,-0.071 l -27.8355,0.972 c -0.041,0 -0.073,0.036 -0.071,0.076 l -0.1773,-5.0726 c -0.029,-0.8409 -0.73,-1.4944 -1.5709,-1.465 l -5.3475,0.1866 c -0.8409,0.029 -1.4944,0.73 -1.465,1.5709 l 0.1751,5.0168 c 0,-0.01 -0.018,-0.017 -0.018,-0.017 l -13.59341,-1.4965 c -0.01,0 -0.017,0.01 -0.016,0.018 l -0.4837,-13.852404 c -0.022,-0.628797 -0.5463,-1.116994 -1.1751,-1.094994 l -2.403,0.084 -0.3002,-8.599952 c -0.011,-0.320597 -0.2783,-0.569797 -0.599,-0.558597 l -1.76059,0.062 c -0.3206,0.011 -0.5698,0.2788 -0.5586,0.599397 l 0.8258,23.64245 c 0,-0.041 -0.036,-0.073 -0.076,-0.071 l -27.8355,0.9721 c -0.041,0 -0.073,0.036 -0.071,0.076 l -0.1773,-5.0725 c -0.029,-0.8409 -0.73,-1.4944 -1.5709,-1.4651 l -5.34753,0.1866 c -0.84093,0.029 -1.49439,0.73 -1.46502,1.571 l 0.17518,5.0167 c 0,-0.01 -0.018,-0.017 -0.018,-0.017 l -13.59349,-1.4965 c -0.0101,0 -0.0169,0.01 -0.0164,0.018 l -0.48421,-13.852404 c -0.022,-0.628797 -0.54581,-1.116994 -1.17462,-1.094994 l -2.40295,0.084 -0.30024,-8.599952 c -0.0111,-0.320697 -0.27829,-0.569797 -0.59894,-0.558597 l -1.76112,0.061 c -0.32065,0.011 -0.56931,0.2788 -0.55811,0.599397 l 0.82579,23.64245 c 0,-0.041 -0.0356,-0.073 -0.0765,-0.071 l -27.83552,0.972 c -0.0409,0 -0.0727,0.036 -0.0713,0.076 l -0.17727,-5.0726 c -0.0294,-0.8408 -0.73004,-1.4944 -1.57096,-1.465 l -5.34747,0.1866 c -0.84093,0.029 -1.49439,0.73 -1.46502,1.5709 l 0.17518,5.0168 c 0,-0.01 -0.018,-0.017 -0.018,-0.017 l -13.59349,-1.4966 c -0.0101,0 -0.0169,0.01 -0.0164,0.018 l -0.48421,-13.852404 c -0.022,-0.628797 -0.54581,-1.116894 -1.17462,-1.094994 l -2.40295,0.084 -0.30024,-8.599352 c -0.0111,-0.320697 -0.27829,-0.570397 -0.59892,-0.559197 l -1.76114,0.061 c -0.32062,0.011 -0.56931,0.2789 -0.55811,0.599497 l 0.82579,23.64245 c 0,-0.041 -0.0356,-0.073 -0.0765,-0.071 l -27.84239,0.9721 c -0.0409,0 -0.0727,0.036 -0.0713,0.076 l -0.17725,-5.0725 c -0.0294,-0.8409 -0.73004,-1.4944 -1.57096,-1.465 l -5.3475,0.1865 c -0.84089,0.029 -1.49436,0.73 -1.46499,1.571 l 0.17518,5.0167 c 0,-0.01 -0.018,-0.017 -0.018,-0.017 l -13.59347,-1.4965 c -0.01,0 -0.0169,0.01 -0.0164,0.018 l -0.48419,-13.852404 c -0.022,-0.628797 -0.54581,-1.116994 -1.17462,-1.094994 l -2.40294,0.084 -0.30025,-8.599952 c -0.0111,-0.320697 -0.27829,-0.569797 -0.59894,-0.558597 l -1.76112,0.062 c -0.32065,0.011 -0.5693,0.2788 -0.55811,0.599397 l 0.82579,23.64245 c 0,-0.041 -0.0356,-0.073 -0.0765,-0.071 l -27.835524,0.972 c -0.0409,0 -0.0727,0.036 -0.0713,0.076 l -0.17725,-5.07249 c -0.0294,-0.84091 -0.73003,-1.49451 -1.57096,-1.46511 l -5.347473,0.1866 c -0.84095,0.029 -1.49439,0.73 -1.46505,1.5709 l 0.17521,5.0168 c 0,-0.01 -0.018,-0.017 -0.018,-0.017 z"
       style="opacity:0.5;fill:#666666;fill-opacity:1;stroke:#00ff00;stroke-width:0;stroke-miterlimit:4;stroke-dasharray:none;stroke-opacity:1" />
    <path
       inkscape:tile-y0="422.39084"
       inkscape:tile-x0="1760.0462"
       sodipodi:nodetypes="ccccssccccccccccccsccccccsccccccsccccccscccccccccccccssssccccccccccccccccccccsccccccccccscccccccsccccccccscscccccccscccccccsscscccccccsccccccccscscccccccsccc"
       inkscape:connector-curvature="0"
       id="use9829"
       d="m 339.78491,-31.329505 -0.0878,-2.5017 -0.0326,-0.9405 -0.16121,-4.6178 0,-6.1836 c 0,-0.1447 -0.11676,-0.2615 -0.26149,-0.2615 l -26.07387,0 0,-9.116899 2.99982,0 0,-4.9253 -3.00032,0 -10.37458,0 c -1.75614,-0.1707 -3.8808,0 -6.77682,-0.013 l -0.19381,10.5002 6.38929,0 0.19378,3.554899 -13.48909,0 -32.22956,0 c -0.84347,-4.132199 -2.66412,-8.596699 -5.51389,-11.665999 -2.91695,-3.1417 -5.62383,-2.3584 -11.60807,-2.3885 l -0.1938,10.4997 6.38929,0 0.19378,3.554799 -13.4891,0 -32.22955,0 c -0.84347,-4.132199 -2.66409,-8.596699 -5.51387,-11.665999 -2.91697,-3.1417 -5.62385,-2.3588 -11.60809,-2.389 l -0.19378,10.5002 6.38929,0 0.19378,3.554799 -13.48912,0 -32.22951,0 c -0.8435,-4.132199 -2.6641,-8.596699 -5.5139,-11.665999 -2.917,-3.1417 -5.6238,-2.3588 -11.6081,-2.389 l -0.1938,10.5002 6.3893,0 0.1938,3.554799 -13.4891,0 -32.229595,0 c -0.8434,-4.132199 -2.6641,-8.596699 -5.5139,-11.665999 -1.5925,-1.7153 -3.1265,-2.2574 -5.1614,-2.404 l 0,-0.083 -3.1244,0 0,0.11109 -2.9998,0 0,4.92511 2.9998,0 0,5.2855 0.1933,0 -0.01,0.2765 2.6851,0 0.1938,3.554799 -13.4891,0 -5.8348,0 c -0.1447,0 -0.2609,0.1168 -0.2609,0.2615 l 0,10.6846 c 0,0.1447 0.1162,0.2615 0.2609,0.2615 l 0.1023,0 0.097,2.7848 c 0,0.069 0.018,0.4822 0.018,0.4822 l 0.2202,0.027 6.6296,0.7529 c 0.01,0 0.017,-0.01 0.016,-0.018 l 0.4836,13.8524 c 0.022,0.6288 0.5463,1.117 1.1751,1.095 l 2.403,-0.084 0.3002,8.5999982 c 0.011,0.3205997 0.2783,0.5697997 0.5989,0.5585997 l 1.7607,-0.062 c 0.3206,-0.011 0.5698,-0.2786997 0.5586,-0.5993997 l -0.8258,-23.6424982 c 0,0.041 0.036,0.073 0.076,0.071 l 27.835494,-0.972 c 0.041,0 0.073,-0.036 0.071,-0.076 l 0.1773,5.0726 c 0.029,0.8409 0.73,1.4944 1.570901,1.465 l 5.3475,-0.1866 c 0.8409,-0.029 1.4944,-0.73 1.465,-1.5709 l -0.1751,-5.0168 c 0,0.01 0.018,0.017 0.018,0.017 l 13.5934,1.4965 c 0.01,0 0.017,-0.01 0.016,-0.018 l 0.4837,13.8524 c 0.022,0.6288 0.5463,1.117 1.1751,1.095 l 2.403,-0.084 0.3002,8.5999982 c 0.011,0.3205997 0.2783,0.5697997 0.599,0.5585997 l 1.7606,-0.062 c 0.3206,-0.011 0.5698,-0.2787997 0.5586,-0.5993997 l -0.8258,-23.6424982 c 0,0.041 0.036,0.073 0.076,0.071 l 27.8355,-0.9721 c 0.041,0 0.073,-0.036 0.071,-0.076 l 0.1773,5.0725 c 0.029,0.8409 0.73,1.4944 1.5709,1.4651 l 5.34753,-0.1866 c 0.84093,-0.029 1.49439,-0.73 1.46502,-1.571 l -0.17518,-5.0167 c 0,0.01 0.018,0.017 0.018,0.017 l 13.59349,1.4965 c 0.0101,0 0.0169,-0.01 0.0164,-0.018 l 0.48421,13.8524 c 0.022,0.6288 0.54581,1.117 1.17462,1.095 l 2.40295,-0.084 0.30024,8.5999982 c 0.0111,0.3206997 0.27829,0.5697997 0.59894,0.5585997 l 1.76112,-0.061 c 0.32065,-0.011 0.56931,-0.2787997 0.55811,-0.5993997 l -0.82579,-23.6424982 c 0,0.041 0.0356,0.073 0.0765,0.071 l 27.83552,-0.972 c 0.0409,0 0.0727,-0.036 0.0713,-0.076 l 0.17727,5.0726 c 0.0294,0.8408 0.73004,1.4944 1.57096,1.465 l 5.34747,-0.1866 c 0.84093,-0.029 1.49439,-0.73 1.46502,-1.5709 l -0.17518,-5.0168 c 0,0.01 0.018,0.017 0.018,0.017 l 13.59349,1.4966 c 0.0101,0 0.0169,-0.01 0.0164,-0.018 l 0.48421,13.8524 c 0.022,0.6288 0.54581,1.1169 1.17462,1.095 l 2.40295,-0.084 0.30024,8.5993982 c 0.0111,0.3206997 0.27829,0.5703997 0.59892,0.5591997 l 1.76114,-0.061 c 0.32062,-0.011 0.56931,-0.2788997 0.55811,-0.5994997 l -0.82579,-23.6424982 c 0,0.041 0.0356,0.073 0.0765,0.071 l 27.84239,-0.9721 c 0.0409,0 0.0727,-0.036 0.0713,-0.076 l 0.17725,5.0725 c 0.0294,0.8409 0.73004,1.4944 1.57096,1.465 l 5.3475,-0.1865 c 0.84089,-0.029 1.49436,-0.73 1.46499,-1.571 l -0.17518,-5.0167 c 0,0.01 0.018,0.017 0.018,0.017 l 13.59347,1.4965 c 0.01,0 0.0169,-0.01 0.0164,-0.018 l 0.48419,13.8524 c 0.022,0.6288 0.54581,1.117 1.17462,1.095 l 2.40294,-0.084 0.30025,8.5999982 c 0.0111,0.3206997 0.27829,0.5697997 0.59894,0.5585997 l 1.76112,-0.062 c 0.32065,-0.011 0.5693,-0.2787997 0.55811,-0.5993997 l -0.82579,-23.6424982 c 0,0.041 0.0356,0.073 0.0765,0.071 l 27.83552,-0.972 c 0.0409,0 0.0727,-0.036 0.0713,-0.076 l 0.17725,5.07249 c 0.0294,0.84091 0.73003,1.49451 1.57096,1.46511 l 5.34747,-0.1866 c 0.84095,-0.029 1.49439,-0.73 1.46505,-1.5709 l -0.17521,-5.0168 c 0,0.01 0.018,0.017 0.018,0.017 z"
       style="opacity:0.5;fill:#666666;fill-opacity:1;stroke:#00ff00;stroke-width:0;stroke-miterlimit:4;stroke-dasharray:none;stroke-opacity:1" />
    <path
       inkscape:tile-y0="422.39084"
       inkscape:tile-x0="1760.0462"
       sodipodi:nodetypes="ccccssccccccccccccsccccccsccccccsccccccscccccccccccccssssccccccccccccccccccccsccccccccccscccccccsccccccccscscccccccscccccccsscscccccccsccccccccscscccccccsccc"
       inkscape:connector-curvature="0"
       id="use9835"
       d="m 31.548749,-100.65776 -2.5017,0.0878 -0.9405,0.0326 -4.6178,0.16121 -6.1836,0 c -0.1447,0 -0.2615,0.11676 -0.2615,0.26149 l 0,26.073872 -9.1169008,0 0,-2.99982 -4.9253,0 0,3.00032 0,10.37458 c -0.1707,1.75614 0,3.8808 -0.013,6.77682 l 10.5002008,0.19381 0,-6.38929 3.5549,-0.19378 0,13.48909 0,32.22956 c -4.1322,0.84347 -8.5967011,2.66412 -11.6660008,5.51389 -3.1417,2.9169494 -2.3584,5.6238296 -2.3885,11.60806954 l 10.4997008,0.1938 0,-6.38928994 3.5548,-0.19378 0,13.489102 0,32.2295504 c -4.1322,0.84347 -8.5967011,2.66409 -11.6660008,5.51387 -3.1417,2.91697 -2.3588,5.62385 -2.389,11.60809 l 10.5002008,0.19378 0,-6.38929 3.5548,-0.19378 0,13.48912 0,32.22951 c -4.1322,0.8435 -8.5967011,2.6641 -11.6660008,5.513906 -3.1417,2.917 -2.3588,5.6238 -2.389,11.6081 l 10.5002008,0.1938 0,-6.3893 3.5548,-0.1938 0,13.4891 0,32.2296 c -4.1322,0.8434 -8.5967011,2.6641 -11.6660008,5.5139 -1.7153,1.5925 -2.2574,3.1265 -2.404,5.1614 l -0.083,0 0,3.1244 0.1111,0 0,2.9998 4.9251,0 0,-2.9998 5.2855008,0 0,-0.19331 0.2765,0.01 0,-2.68509 3.5548,-0.19381 0,13.48911 0,5.83479 c 0,0.1447 0.1168,0.2609 0.2615,0.2609 l 10.6846,0 c 0.1447,0 0.2615,-0.1162 0.2615,-0.2609 l 0,-0.1023 2.7848,-0.097 c 0.069,0 0.4822,-0.018 0.4822,-0.018 l 0.027,-0.2202 0.7529,-6.6296 c 0,-0.01 -0.01,-0.017 -0.018,-0.016 l 13.8524,-0.4836 c 0.6288,-0.022 1.117,-0.5463 1.095,-1.1751 l -0.084,-2.40301 8.6,-0.3002 c 0.3206,-0.011 0.5698,-0.2783 0.5586,-0.5989 l -0.062,-1.7607 c -0.011,-0.3206 -0.2787,-0.5698 -0.5994,-0.5586 l -23.6425,0.8258 c 0.041,0 0.073,-0.036 0.071,-0.076 l -0.972,-27.8355 c 0,-0.041 -0.036,-0.073 -0.076,-0.071 l 5.0726,-0.1773 c 0.8409,-0.029 1.4944,-0.73 1.465,-1.5709 l -0.1866,-5.3475 c -0.029,-0.8409 -0.73,-1.4944 -1.5709,-1.465 l -5.0168,0.1751 c 0.01,0 0.017,-0.018 0.017,-0.018 l 1.4965,-13.5934 c 0,-0.01 -0.01,-0.017 -0.018,-0.016 l 13.8524,-0.4837 c 0.6288,-0.022 1.117,-0.5463 1.095,-1.1751 l -0.084,-2.40299 8.6,-0.3002 c 0.3206,-0.011 0.5698,-0.2783 0.5586,-0.599 l -0.062,-1.7606 c -0.011,-0.32061 -0.2788,-0.5698 -0.5994,-0.55861 l -23.6425,0.8258 c 0.041,0 0.073,-0.036 0.071,-0.076 l -0.9721,-27.835496 c 0,-0.041 -0.036,-0.073 -0.076,-0.071 l 5.0725,-0.1773 c 0.8409,-0.029 1.4944,-0.73 1.4651,-1.5709 l -0.1866,-5.34753 c -0.029,-0.84093 -0.73,-1.49439 -1.571,-1.46502 l -5.0167,0.17518 c 0.01,0 0.017,-0.018 0.017,-0.018 l 1.4965,-13.59349 c 0,-0.0101 -0.01,-0.0169 -0.018,-0.0164 l 13.8524,-0.48421 c 0.6288,-0.022 1.117,-0.54581 1.095,-1.17462 l -0.084,-2.40295 8.6,-0.30024 c 0.3207,-0.0111 0.5698,-0.27829 0.5586,-0.59894 l -0.061,-1.76112 c -0.011,-0.32065 -0.2788,-0.56931 -0.5994,-0.55811 l -23.6425,0.82579 c 0.041,0 0.073,-0.0356 0.071,-0.0765 l -0.972,-27.83552 c 0,-0.0409 -0.036,-0.0727 -0.076,-0.0713 l 5.0726,-0.17727 c 0.8408,-0.0294 1.4944,-0.73004 1.465,-1.57096 l -0.1866,-5.34747 c -0.029,-0.84093 -0.73,-1.49439 -1.5709,-1.46502 l -5.0168,0.17518 c 0.01,0 0.017,-0.018 0.017,-0.018 l 1.4966,-13.5934924 c 0,-0.0101 -0.01,-0.0169 -0.018,-0.0164 l 13.8524,-0.48421 c 0.6288,-0.022 1.1169,-0.54581 1.095,-1.17462 l -0.084,-2.40295 8.5994,-0.30024 c 0.3207,-0.0111 0.5704,-0.27829003 0.5592,-0.59891999 l -0.061,-1.76114001 c -0.011,-0.32062 -0.2789,-0.56931 -0.5995,-0.55811 l -23.6425,0.82579 c 0.041,0 0.073,-0.0356 0.071,-0.0765 l -0.9721,-27.8423896 c 0,-0.0409 -0.036,-0.0727 -0.076,-0.0713 l 5.0725,-0.17725 c 0.8409,-0.0294 1.4944,-0.73004 1.465,-1.57096 l -0.1865,-5.3475 c -0.029,-0.84089 -0.73,-1.49436 -1.571,-1.46499 l -5.0167,0.17518 c 0.01,0 0.017,-0.018 0.017,-0.018 l 1.4965,-13.59347 c 0,-0.01 -0.01,-0.0169 -0.018,-0.0164 l 13.8524,-0.48419 c 0.6288,-0.022 1.117,-0.54581 1.095,-1.17462 l -0.084,-2.40294 8.6,-0.30025 c 0.3207,-0.0111 0.5698,-0.27829 0.5586,-0.59894 l -0.062,-1.76112 c -0.011,-0.32065 -0.2788,-0.5693 -0.5994,-0.55811 l -23.6425,0.82579 c 0.041,0 0.073,-0.0356 0.071,-0.0765 l -0.972,-27.83552 c 0,-0.0409 -0.036,-0.0727 -0.076,-0.0713 l 5.07249,-0.17725 c 0.84091,-0.0294 1.49451,-0.73003 1.46511,-1.57096 l -0.1866,-5.34747 c -0.029,-0.84095 -0.73,-1.49439 -1.5709,-1.46505 l -5.0168,0.17521 c 0.01,0 0.017,-0.018 0.017,-0.018 z"
       style="opacity:0.5;fill:#666666;fill-opacity:1;stroke:#00ff00;stroke-width:0;stroke-miterlimit:4;stroke-dasharray:none;stroke-opacity:1" />
    <path
       inkscape:tile-y0="422.39084"
       inkscape:tile-x0="1760.0462"
       sodipodi:nodetypes="ccccssccccccccccccsccccccsccccccsccccccscccccccccccccssssccccccccccccccccccccsccccccccccscccccccsccccccccscscccccccscccccccsscscccccccsccccccccscscccccccsccc"
       inkscape:connector-curvature="0"
       id="use9837"
       d="m 313.46781,267.72403 0.0878,2.5017 0.0326,0.9405 0.16121,4.6178 0,6.1836 c 0,0.1447 0.11676,0.2615 0.26149,0.2615 l 26.07387,0 0,9.1169 -2.99982,0 0,4.9253 3.00032,0 10.37458,0 c 1.75614,0.1707 3.8808,0 6.77682,0.013 l 0.19381,-10.5002 -6.38929,0 -0.19378,-3.5549 13.48909,0 32.22956,0 c 0.84347,4.1322 2.66412,8.5967 5.51389,11.666 2.91695,3.1417 5.62383,2.3584 11.60807,2.3885 l 0.1938,-10.4997 -6.38929,0 -0.19378,-3.5548 13.4891,0 32.22955,0 c 0.84347,4.1322 2.66409,8.5967 5.51387,11.666 2.91697,3.1417 5.62385,2.3588 11.60809,2.389 l 0.19378,-10.5002 -6.38929,0 -0.19378,-3.5548 13.48912,0 32.22951,0 c 0.8435,4.1322 2.6641,8.5967 5.5139,11.666 2.917,3.1417 5.6238,2.3588 11.6081,2.389 l 0.1938,-10.5002 -6.3893,0 -0.1938,-3.5548 13.4891,0 32.2296,0 c 0.8434,4.1322 2.6641,8.5967 5.5139,11.666 1.5925,1.7153 3.1265,2.2574 5.1614,2.404 l 0,0.083 3.1244,0 0,-0.1111 2.9998,0 0,-4.9251 -2.9998,0 0,-5.2855 -0.1933,0 0.01,-0.2765 -2.6851,0 -0.1938,-3.5548 13.4891,0 5.8348,0 c 0.1447,0 0.2609,-0.1168 0.2609,-0.2615 l 0,-10.6846 c 0,-0.1447 -0.1162,-0.2615 -0.2609,-0.2615 l -0.1023,0 -0.097,-2.7848 c 0,-0.069 -0.018,-0.4822 -0.018,-0.4822 l -0.2202,-0.027 -6.6296,-0.7529 c -0.01,0 -0.017,0.01 -0.016,0.018 l -0.4836,-13.8524 c -0.022,-0.6288 -0.5463,-1.117 -1.1751,-1.095 l -2.403,0.084 -0.3002,-8.6 c -0.011,-0.3206 -0.2783,-0.5698 -0.5989,-0.5586 l -1.7607,0.062 c -0.3206,0.011 -0.5698,0.2787 -0.5586,0.5994 l 0.8258,23.6425 c 0,-0.041 -0.036,-0.073 -0.076,-0.071 l -27.8355,0.972 c -0.041,0 -0.073,0.036 -0.071,0.076 l -0.1773,-5.0726 c -0.029,-0.8409 -0.73,-1.4944 -1.5709,-1.465 l -5.3475,0.1866 c -0.8409,0.029 -1.4944,0.73 -1.465,1.5709 l 0.1751,5.0168 c 0,-0.01 -0.018,-0.017 -0.018,-0.017 l -13.5934,-1.4965 c -0.01,0 -0.017,0.01 -0.016,0.018 l -0.4837,-13.8524 c -0.022,-0.6288 -0.5463,-1.117 -1.1751,-1.095 l -2.403,0.084 -0.3002,-8.6 c -0.011,-0.3206 -0.2783,-0.5698 -0.599,-0.5586 l -1.7606,0.062 c -0.3206,0.011 -0.5698,0.2788 -0.5586,0.5994 l 0.8258,23.6425 c 0,-0.041 -0.036,-0.073 -0.076,-0.071 l -27.8355,0.9721 c -0.041,0 -0.073,0.036 -0.071,0.076 l -0.1773,-5.0725 c -0.029,-0.8409 -0.73,-1.4944 -1.5709,-1.4651 l -5.34753,0.1866 c -0.84093,0.029 -1.49439,0.73 -1.46502,1.571 l 0.17518,5.0167 c 0,-0.01 -0.018,-0.017 -0.018,-0.017 l -13.59349,-1.4965 c -0.0101,0 -0.0169,0.01 -0.0164,0.018 l -0.48421,-13.8524 c -0.022,-0.6288 -0.54581,-1.117 -1.17462,-1.095 l -2.40295,0.084 -0.30024,-8.6 c -0.0111,-0.3207 -0.27829,-0.5698 -0.59894,-0.5586 l -1.76112,0.061 c -0.32065,0.011 -0.56931,0.2788 -0.55811,0.5994 l 0.82579,23.6425 c 0,-0.041 -0.0356,-0.073 -0.0765,-0.071 l -27.83552,0.972 c -0.0409,0 -0.0727,0.036 -0.0713,0.076 l -0.17727,-5.0726 c -0.0294,-0.8408 -0.73004,-1.4944 -1.57096,-1.465 l -5.34747,0.1866 c -0.84093,0.029 -1.49439,0.73 -1.46502,1.5709 l 0.17518,5.0168 c 0,-0.01 -0.018,-0.017 -0.018,-0.017 l -13.59349,-1.4966 c -0.0101,0 -0.0169,0.01 -0.0164,0.018 l -0.48421,-13.8524 c -0.022,-0.6288 -0.54581,-1.1169 -1.17462,-1.095 l -2.40295,0.084 -0.30024,-8.5994 c -0.0111,-0.3207 -0.27829,-0.5704 -0.59892,-0.5592 l -1.76114,0.061 c -0.32062,0.011 -0.56931,0.2789 -0.55811,0.5995 l 0.82579,23.6425 c 0,-0.041 -0.0356,-0.073 -0.0765,-0.071 l -27.84239,0.9721 c -0.0409,0 -0.0727,0.036 -0.0713,0.076 l -0.17725,-5.0725 c -0.0294,-0.8409 -0.73004,-1.4944 -1.57096,-1.465 l -5.3475,0.1865 c -0.84089,0.029 -1.49436,0.73 -1.46499,1.571 l 0.17518,5.0167 c 0,-0.01 -0.018,-0.017 -0.018,-0.017 l -13.59347,-1.4965 c -0.01,0 -0.0169,0.01 -0.0164,0.018 l -0.48419,-13.8524 c -0.022,-0.6288 -0.54581,-1.117 -1.17462,-1.095 l -2.40294,0.084 -0.30025,-8.6 c -0.0111,-0.3207 -0.27829,-0.5698 -0.59894,-0.5586 l -1.76112,0.062 c -0.32065,0.011 -0.5693,0.2788 -0.55811,0.5994 l 0.82579,23.6425 c 0,-0.041 -0.0356,-0.073 -0.0765,-0.071 l -27.83552,0.972 c -0.0409,0 -0.0727,0.036 -0.0713,0.076 l -0.17725,-5.07249 c -0.0294,-0.84091 -0.73003,-1.49451 -1.57096,-1.46511 l -5.34747,0.1866 c -0.84095,0.029 -1.49439,0.73 -1.46505,1.5709 l 0.17521,5.0168 c 0,-0.01 -0.018,-0.017 -0.018,-0.017 z"
       style="opacity:0.5;fill:#666666;fill-opacity:1;stroke:#00ff00;stroke-width:0;stroke-miterlimit:4;stroke-dasharray:none;stroke-opacity:1" />
    <path
       inkscape:tile-y0="422.39084"
       inkscape:tile-x0="1760.0462"
       sodipodi:nodetypes="ccccssccccccccccccsccccccsccccccsccccccscccccccccccccssssccccccccccccccccccccsccccccccccscccccccsccccccccscscccccccscccccccsscscccccccsccccccccscscccccccsccc"
       inkscape:connector-curvature="0"
       id="use9839"
       d="m 572.4584,-55.53202 -2.5017,0.0878 -0.9405,0.0326 -4.6178,0.16121 -6.1836,0 c -0.1447,0 -0.2615,0.11676 -0.2615,0.26149 l 0,26.07387 -9.1169,0 0,-2.99982 -4.9253,0 0,3.00032 0,10.37458 c -0.1707,1.75614 0,3.8808 -0.013,6.77682 l 10.5002,0.19381 0,-6.38929 3.5549,-0.19378 0,13.48909 0,32.22956 c -4.1322,0.84347 -8.5967,2.66412 -11.666,5.51389 -3.1417,2.91695 -2.3584,5.62383 -2.3885,11.60807 l 10.4997,0.1938 0,-6.38929 3.5548,-0.19378 0,13.4891 0,32.22955 c -4.1322,0.84347 -8.5967,2.66409 -11.666,5.51387 -3.1417,2.91697 -2.3588,5.62385 -2.389,11.60809 l 10.5002,0.19378 0,-6.38929 3.5548,-0.19378 0,13.48912 0,32.22951 c -4.1322,0.8435 -8.5967,2.6641 -11.666,5.5139 -3.1417,2.917 -2.3588,5.6238 -2.389,11.6081 l 10.5002,0.1938 0,-6.3893 3.5548,-0.1938 0,13.4891 0,32.2296 c -4.1322,0.8434 -8.5967,2.6641 -11.666,5.5139 -1.7153,1.5925 -2.2574,3.1265 -2.404,5.1614 l -0.083,0 0,3.1244 0.1111,0 0,2.9998 4.9251,0 0,-2.9998 5.2855,0 0,-0.1933 0.2765,0.01 0,-2.6851 3.5548,-0.1938 0,13.4891 0,5.8348 c 0,0.1447 0.1168,0.2609 0.2615,0.2609 l 10.6846,0 c 0.1447,0 0.2615,-0.1162 0.2615,-0.2609 l 0,-0.1023 2.7848,-0.097 c 0.069,0 0.4822,-0.018 0.4822,-0.018 l 0.027,-0.2202 0.7529,-6.6296 c 0,-0.01 -0.01,-0.017 -0.018,-0.016 l 13.8524,-0.4836 c 0.6288,-0.022 1.117,-0.5463 1.095,-1.1751 l -0.084,-2.403 8.6,-0.3002 c 0.3206,-0.011 0.5698,-0.2783 0.5586,-0.5989 l -0.062,-1.7607 c -0.011,-0.3206 -0.2787,-0.5698 -0.5994,-0.5586 l -23.6425,0.8258 c 0.041,0 0.073,-0.036 0.071,-0.076 l -0.972,-27.8355 c 0,-0.041 -0.036,-0.073 -0.076,-0.071 l 5.0726,-0.1773 c 0.8409,-0.029 1.4944,-0.73 1.465,-1.5709 l -0.1866,-5.3475 c -0.029,-0.8409 -0.73,-1.4944 -1.5709,-1.465 l -5.0168,0.1751 c 0.01,0 0.017,-0.018 0.017,-0.018 l 1.4965,-13.5934 c 0,-0.01 -0.01,-0.017 -0.018,-0.016 l 13.8524,-0.4837 c 0.6288,-0.022 1.117,-0.5463 1.095,-1.1751 l -0.084,-2.403 8.6,-0.3002 c 0.3206,-0.011 0.5698,-0.2783 0.5586,-0.599 l -0.062,-1.7606 c -0.011,-0.3206 -0.2788,-0.5698 -0.5994,-0.5586 l -23.6425,0.8258 c 0.041,0 0.073,-0.036 0.071,-0.076 l -0.9721,-27.8355 c 0,-0.041 -0.036,-0.073 -0.076,-0.071 l 5.0725,-0.1773 c 0.8409,-0.029 1.4944,-0.73 1.4651,-1.5709 l -0.1866,-5.34753 c -0.029,-0.84093 -0.73,-1.49439 -1.571,-1.46502 l -5.0167,0.17518 c 0.01,0 0.017,-0.018 0.017,-0.018 l 1.4965,-13.59349 c 0,-0.0101 -0.01,-0.0169 -0.018,-0.0164 l 13.8524,-0.48421 c 0.6288,-0.022 1.117,-0.54581 1.095,-1.17462 l -0.084,-2.40295 8.6,-0.30024 c 0.3207,-0.0111 0.5698,-0.27829 0.5586,-0.59894 l -0.061,-1.76112 c -0.011,-0.32065 -0.2788,-0.56931 -0.5994,-0.55811 l -23.6425,0.82579 c 0.041,0 0.073,-0.0356 0.071,-0.0765 L 572.0075,72.632 c 0,-0.0409 -0.036,-0.0727 -0.076,-0.0713 l 5.0726,-0.17727 c 0.8408,-0.0294 1.4944,-0.73004 1.465,-1.57096 L 578.2825,65.465 c -0.029,-0.84093 -0.73,-1.49439 -1.5709,-1.46502 l -5.0168,0.17518 c 0.01,0 0.017,-0.018 0.017,-0.018 l 1.4966,-13.59349 c 0,-0.0101 -0.01,-0.0169 -0.018,-0.0164 l 13.8524,-0.48421 c 0.6288,-0.022 1.1169,-0.54581 1.095,-1.17462 l -0.084,-2.40295 8.5994,-0.30024 c 0.3207,-0.0111 0.5704,-0.27829 0.5592,-0.59892 l -0.061,-1.76114 c -0.011,-0.32062 -0.2789,-0.56931 -0.5995,-0.55811 l -23.6425,0.82579 c 0.041,0 0.073,-0.0356 0.071,-0.0765 l -0.9721,-27.84239 c 0,-0.0409 -0.036,-0.0727 -0.076,-0.0713 l 5.0725,-0.17725 c 0.8409,-0.0294 1.4944,-0.73004 1.465,-1.57096 l -0.1865,-5.3475 c -0.029,-0.84089 -0.73,-1.49436 -1.571,-1.46499 l -5.0167,0.17518 c 0.01,0 0.017,-0.018 0.017,-0.018 l 1.4965,-13.59347 c 0,-0.01 -0.01,-0.0169 -0.018,-0.0164 l 13.8524,-0.48419 c 0.6288,-0.022 1.117,-0.54581 1.095,-1.17462 l -0.084,-2.40294 8.6,-0.30025 c 0.3207,-0.0111 0.5698,-0.27829 0.5586,-0.59894 l -0.062,-1.76112 c -0.011,-0.32065 -0.2788,-0.5693 -0.5994,-0.55811 l -23.6425,0.82579 c 0.041,0 0.073,-0.0356 0.071,-0.0765 l -0.972,-27.83552 c 0,-0.0409 -0.036,-0.0727 -0.076,-0.0713 l 5.07249,-0.17725 c 0.84091,-0.0294 1.49451,-0.73003 1.46511,-1.57096 l -0.1866,-5.34747 c -0.029,-0.84095 -0.73,-1.49439 -1.5709,-1.46505 l -5.0168,0.17521 c 0.01,0 0.017,-0.018 0.017,-0.018 z"
       style="opacity:0.5;fill:#666666;fill-opacity:1;stroke:#00ff00;stroke-width:0;stroke-miterlimit:4;stroke-dasharray:none;stroke-opacity:1" />
    <rect
       style="opacity:0.5;fill:none;fill-opacity:1;stroke:#ff0000;stroke-width:0;stroke-miterlimit:4;stroke-dasharray:none;stroke-opacity:1"
       id="rect9841"
       width="600"
       height="400"
       x="0.037500001"
       y="-102.9625" />
    <path
       style="opacity:0.5;fill:#666666;fill-opacity:1;stroke:#ff00ff;stroke-width:0;stroke-miterlimit:4;stroke-dasharray:none;stroke-opacity:1"
       d="m 431.43391,70.696635 c 0,0 -6.01922,0.52866 -8.7612,1.66088 -2.74201,1.13214 -7.33756,4.97076 -7.33756,4.97076 L 378.60202,114.0609 c 0,0 -3.88207,4.63059 -5.02039,7.37009 -1.13829,2.7394 -1.67378,8.70283 -1.67378,8.70283 l 0,51.94825 c 0,0 0.52866,6.01972 1.66087,8.76174 1.1322,2.74195 4.97075,7.33753 4.97075,7.33753 l 36.73266,36.73265 c 0,0 4.63058,3.88258 7.37008,5.02088 2.73941,1.13831 8.70336,1.6738 8.70336,1.6738 l 51.94771,0 c 0,0 6.01974,-0.52918 8.76175,-1.6614 2.74199,-1.13214 7.33753,-4.97024 7.33753,-4.97024 l 36.73213,-36.73264 c 0,0 10e-4,-0.001 10e-4,-0.001 l 0,-5.2e-4 c 0.004,-0.004 3.8826,-4.63032 5.02036,-7.36854 1.13829,-2.7394 1.67381,-8.70334 1.67381,-8.70334 l 0,-51.94722 c 0,0 0,-5.2e-4 0,-5.2e-4 -1.6e-4,-0.002 -0.52936,-6.02007 -1.6614,-8.76174 -1.13221,-2.74194 -4.97025,-7.33753 -4.97025,-7.33753 L 499.45508,77.390805 c 0,0 -4.63007,-3.88207 -7.36957,-5.02037 -2.73939,-1.13831 -8.70333,-1.6738 -8.70333,-1.6738 l -51.94827,0 z m 2.41642,5.9924 2.85046,0 0,4.77542 -2.85046,0 0,-4.77542 z m 43.12189,0 2.84996,0 0,4.77542 -2.84996,0 0,-4.77542 z m 19.95435,6.64817 2.01538,2.01487 -3.37653,3.37653 -2.01539,-2.01486 3.37654,-3.37654 z m -79.87162,0.74569 3.37656,3.37654 -2.01539,2.01538 -3.37603,-3.37654 2.01486,-2.01538 z m 110.36329,29.745975 2.01488,2.01486 -3.37603,3.37654 -2.01539,-2.01538 3.37654,-3.37602 z m -140.85446,0.74569 3.37603,3.37654 -2.01485,2.01538 -3.37654,-3.37654 2.01536,-2.01538 z m 145.48829,18.06453 4.77541,0 0,2.84996 -4.77541,0 0,-2.84996 z m -154.15183,1.05524 4.77541,0 0,2.84995 -4.77541,0 0,-2.84995 z m 79.4427,12.39665 a 10.153542,10.153542 0 0 1 10.15339,10.15339 10.153542,10.153542 0 0 1 -10.15339,10.15339 10.153542,10.153542 0 0 1 -10.15391,-10.15339 10.153542,10.153542 0 0 1 10.15391,-10.15339 z m 74.70913,29.67003 4.77541,0 0,2.84995 -4.77541,0 0,-2.84995 z m -154.15183,1.05471 4.77541,0 0,2.84996 -4.77541,0 0,-2.84996 z m 148.90255,15.52308 3.37653,3.37654 -2.01538,2.01538 -3.37654,-3.37653 2.01539,-2.01539 z m -138.13216,0.74621 2.01539,2.01487 -3.37654,3.37654 -2.01538,-2.01539 3.37653,-3.37602 z m 107.64046,29.74547 3.37654,3.37654 -2.01486,2.01487 -3.37653,-3.37603 2.01485,-2.01538 z m -77.14876,0.74569 2.01538,2.01539 -3.37653,3.37653 -2.01539,-2.01538 3.37654,-3.37654 z m 15.74321,7.26468 2.84996,0 0,4.7749 -2.84996,0 0,-4.7749 z m 43.12142,0 2.84993,0 0,4.7749 -2.84993,0 0,-4.7749 z"
       id="path10030"
       inkscape:connector-curvature="0" />
    <path
       id="path11175"
       d="m 429.36969,-101.16122 c 0,0 -6.01922,0.52866 -8.76121,1.660887 -2.742,1.132138 -7.33755,4.970754 -7.33755,4.970754 l -36.73314,36.732641 c 0,0 -3.88207,4.630592 -5.02039,7.370093 -1.13829,2.739401 -1.67378,8.702851 -1.67378,8.702851 l 0,51.948259 c 0,0 0.52867,6.019721 1.66087,8.761741 1.13221,2.74195 4.97075,7.33754 4.97075,7.33754 l 36.73266,36.73264 c 0,0 4.63058,3.88258 7.37008,5.02088 2.73941,1.13831 8.70336,1.6738 8.70336,1.6738 l 51.94771,0 c 0,0 6.01975,-0.52918 8.76176,-1.6614 2.74198,-1.13214 7.33753,-4.97024 7.33753,-4.97024 l 36.73213,-36.73264 c 0,0 10e-4,-0.001 10e-4,-0.001 l 0,-5.1e-4 c 0.004,-0.004 3.8826,-4.63033 5.02036,-7.36854 1.13829,-2.73941 1.67381,-8.703351 1.67381,-8.703351 l 0,-51.947229 c 0,0 0,-5.1e-4 0,-5.1e-4 -1.6e-4,-0.002 -0.52935,-6.020102 -1.6614,-8.761768 -1.1322,-2.741948 -4.97025,-7.337536 -4.97025,-7.337536 l -36.73316,-36.733157 c 0,0 -4.63008,-3.882066 -7.36957,-5.020368 -2.73939,-1.138317 -8.70334,-1.673797 -8.70334,-1.673797 l -51.94826,0 z m 2.41641,5.992403 2.85046,0 0,4.77542 -2.85046,0 0,-4.77542 z m 43.1219,0 2.84995,0 0,4.77542 -2.84995,0 0,-4.77542 z m 19.95434,6.648175 2.01539,2.014863 -3.37654,3.376538 -2.01538,-2.014866 3.37653,-3.376535 z m -79.87162,0.745688 3.37656,3.376539 -2.01539,2.015381 -3.37603,-3.376538 2.01486,-2.015382 z m 110.36329,29.74599 2.01488,2.014863 -3.37603,3.376538 -2.01538,-2.015381 3.37653,-3.37602 z m -140.85446,0.745691 3.37603,3.376536 -2.01485,2.015381 -3.37653,-3.376538 2.01535,-2.015379 z m 145.48829,18.064559 4.77541,0 0,2.84996 -4.77541,0 0,-2.84996 z m -154.15183,1.05524 4.77541,0 0,2.84995 -4.77541,0 0,-2.84995 z m 79.44271,12.39665 a 10.153542,10.153542 0 0 1 10.15338,10.15339 10.153542,10.153542 0 0 1 -10.15338,10.1533899 10.153542,10.153542 0 0 1 -10.15392,-10.1533899 10.153542,10.153542 0 0 1 10.15392,-10.15339 z m 74.70912,29.6700301 4.77541,0 0,2.8499598 -4.77541,0 0,-2.8499598 z m -154.15183,1.0547198 4.77541,0 0,2.84995 -4.77541,0 0,-2.84995 z m 148.90255,15.5230801 3.37653,3.37654 -2.01538,2.01538 -3.37653,-3.37654 2.01538,-2.01538 z m -138.13216,0.74621 2.01539,2.01486 -3.37653,3.37654 -2.01539,-2.01538 3.37653,-3.37602 z m 107.64047,29.74547 3.37653,3.37654 -2.01485,2.01486 -3.37654,-3.37602 2.01486,-2.01538 z m -77.14877,0.74569 2.01538,2.01538 -3.37653,3.37654 -2.01538,-2.01538 3.37653,-3.37654 z m 15.74321,7.26467 2.84996,0 0,4.7749 -2.84996,0 0,-4.7749 z m 43.12142,0 2.84993,0 0,4.7749 -2.84993,0 0,-4.7749 z"
       style="opacity:0.5;fill:#666666;fill-opacity:1;stroke:#ff00ff;stroke-width:0;stroke-miterlimit:4;stroke-dasharray:none;stroke-opacity:1"
       inkscape:connector-curvature="0" />
    <g
       id="surface2316238"
       transform="matrix(0.35277778,0,0,0.35277778,152.7259,-417.99964)"
       style="stroke-width:0;stroke-miterlimit:4;stroke-dasharray:none" />
    <rect
       style="opacity:0.5;fill:none;fill-opacity:1;stroke:#ff0000;stroke-width:0;stroke-miterlimit:4;stroke-dasharray:none;stroke-opacity:1"
       id="rect29677"
       width="600"
       height="400"
       x="-0.037500001"
       y="-103.0375" />
  </g>
</svg>
